<svg width="" height="" viewBox="0 0 532 532" fill="none" xmlns="http://www.w3.org/2000/svg">
<path d="M532 266C532 412.908 412.908 532 266 532C119.092 532 0 412.908 0 266C0 119.092 119.092 0 266 0C412.908 0 532 119.092 532 266Z" fill="white"/>
<rect x="121.656" y="109.895" width="285.28" height="112.944" fill="#001D4A"/>
<path d="M152.432 146.893V130.536H160.424C162.481 130.536 164.023 130.925 165.051 131.704C166.095 132.483 166.617 133.512 166.617 134.789C166.617 135.646 166.406 136.394 165.986 137.032C165.565 137.655 164.989 138.138 164.257 138.481C163.524 138.824 162.683 138.995 161.733 138.995L162.177 138.037C163.205 138.037 164.116 138.208 164.911 138.551C165.705 138.878 166.321 139.369 166.757 140.023C167.209 140.678 167.435 141.48 167.435 142.43C167.435 143.832 166.881 144.93 165.775 145.725C164.669 146.504 163.041 146.893 160.892 146.893H152.432ZM156.195 144.043H160.611C161.593 144.043 162.333 143.887 162.831 143.575C163.345 143.248 163.602 142.734 163.602 142.033C163.602 141.347 163.345 140.841 162.831 140.514C162.333 140.171 161.593 140 160.611 140H155.914V137.243H159.957C160.876 137.243 161.577 137.087 162.06 136.775C162.558 136.448 162.808 135.957 162.808 135.303C162.808 134.664 162.558 134.189 162.06 133.878C161.577 133.55 160.876 133.387 159.957 133.387H156.195V144.043Z" fill="white"/>
<path d="M173.782 137.126H181.657V140.07H173.782V137.126ZM174.063 143.856H182.966V146.893H170.301V130.536H182.662V133.574H174.063V143.856Z" fill="white"/>
<path d="M183.828 146.893L191.119 130.536H194.858L202.172 146.893H198.199L192.217 132.452H193.713L187.707 146.893H183.828ZM187.473 143.388L188.478 140.514H196.891L197.919 143.388H187.473Z" fill="white"/>
<path d="M211.469 147.174C210.207 147.174 209.031 146.971 207.94 146.566C206.865 146.146 205.93 145.554 205.136 144.79C204.341 144.027 203.718 143.131 203.267 142.103C202.83 141.075 202.612 139.945 202.612 138.715C202.612 137.484 202.83 136.355 203.267 135.326C203.718 134.298 204.341 133.402 205.136 132.639C205.946 131.876 206.889 131.292 207.963 130.887C209.038 130.466 210.215 130.256 211.492 130.256C212.91 130.256 214.187 130.505 215.324 131.003C216.477 131.486 217.443 132.203 218.222 133.153L215.792 135.396C215.231 134.758 214.608 134.283 213.922 133.971C213.237 133.644 212.489 133.48 211.679 133.48C210.916 133.48 210.215 133.605 209.576 133.854C208.937 134.103 208.384 134.462 207.917 134.929C207.449 135.396 207.083 135.95 206.818 136.588C206.569 137.227 206.445 137.936 206.445 138.715C206.445 139.494 206.569 140.202 206.818 140.841C207.083 141.48 207.449 142.033 207.917 142.5C208.384 142.968 208.937 143.326 209.576 143.575C210.215 143.824 210.916 143.949 211.679 143.949C212.489 143.949 213.237 143.793 213.922 143.482C214.608 143.155 215.231 142.664 215.792 142.01L218.222 144.253C217.443 145.203 216.477 145.928 215.324 146.426C214.187 146.925 212.902 147.174 211.469 147.174Z" fill="white"/>
<path d="M228.381 147.174C227.088 147.174 225.888 146.963 224.782 146.543C223.692 146.122 222.742 145.53 221.931 144.767C221.137 144.004 220.514 143.108 220.062 142.08C219.626 141.051 219.408 139.93 219.408 138.715C219.408 137.5 219.626 136.378 220.062 135.35C220.514 134.322 221.145 133.426 221.955 132.662C222.765 131.899 223.715 131.307 224.806 130.887C225.896 130.466 227.08 130.256 228.358 130.256C229.651 130.256 230.835 130.466 231.909 130.887C233 131.307 233.942 131.899 234.737 132.662C235.547 133.426 236.178 134.322 236.63 135.35C237.081 136.362 237.307 137.484 237.307 138.715C237.307 139.93 237.081 141.059 236.63 142.103C236.178 143.131 235.547 144.027 234.737 144.79C233.942 145.538 233 146.122 231.909 146.543C230.835 146.963 229.658 147.174 228.381 147.174ZM228.358 143.949C229.09 143.949 229.76 143.824 230.367 143.575C230.99 143.326 231.536 142.968 232.003 142.5C232.47 142.033 232.829 141.48 233.078 140.841C233.343 140.202 233.475 139.494 233.475 138.715C233.475 137.936 233.343 137.227 233.078 136.588C232.829 135.95 232.47 135.396 232.003 134.929C231.551 134.462 231.014 134.103 230.391 133.854C229.767 133.605 229.09 133.48 228.358 133.48C227.625 133.48 226.948 133.605 226.325 133.854C225.717 134.103 225.18 134.462 224.712 134.929C224.245 135.396 223.879 135.95 223.614 136.588C223.365 137.227 223.24 137.936 223.24 138.715C223.24 139.478 223.365 140.187 223.614 140.841C223.879 141.48 224.237 142.033 224.689 142.5C225.156 142.968 225.701 143.326 226.325 143.575C226.948 143.824 227.625 143.949 228.358 143.949Z" fill="white"/>
<path d="M240.152 146.893V130.536H243.284L252.934 142.313H251.416V130.536H255.154V146.893H252.047L242.372 135.116H243.891V146.893H240.152Z" fill="white"/>
<path d="M273.587 147.174C272.294 147.174 271.095 146.963 269.989 146.543C268.898 146.122 267.948 145.53 267.138 144.767C266.343 144.004 265.72 143.108 265.268 142.08C264.832 141.051 264.614 139.93 264.614 138.715C264.614 137.5 264.832 136.378 265.268 135.35C265.72 134.322 266.351 133.426 267.161 132.662C267.971 131.899 268.922 131.307 270.012 130.887C271.102 130.466 272.286 130.256 273.564 130.256C274.857 130.256 276.041 130.466 277.116 130.887C278.206 131.307 279.149 131.899 279.943 132.662C280.753 133.426 281.384 134.322 281.836 135.35C282.288 136.362 282.514 137.484 282.514 138.715C282.514 139.93 282.288 141.059 281.836 142.103C281.384 143.131 280.753 144.027 279.943 144.79C279.149 145.538 278.206 146.122 277.116 146.543C276.041 146.963 274.865 147.174 273.587 147.174ZM273.564 143.949C274.296 143.949 274.966 143.824 275.574 143.575C276.197 143.326 276.742 142.968 277.209 142.5C277.677 142.033 278.035 141.48 278.284 140.841C278.549 140.202 278.681 139.494 278.681 138.715C278.681 137.936 278.549 137.227 278.284 136.588C278.035 135.95 277.677 135.396 277.209 134.929C276.757 134.462 276.22 134.103 275.597 133.854C274.974 133.605 274.296 133.48 273.564 133.48C272.832 133.48 272.154 133.605 271.531 133.854C270.923 134.103 270.386 134.462 269.919 134.929C269.451 135.396 269.085 135.95 268.82 136.588C268.571 137.227 268.446 137.936 268.446 138.715C268.446 139.478 268.571 140.187 268.82 140.841C269.085 141.48 269.443 142.033 269.895 142.5C270.363 142.968 270.908 143.326 271.531 143.575C272.154 143.824 272.832 143.949 273.564 143.949Z" fill="white"/>
<path d="M288.864 137.897H296.715V140.935H288.864V137.897ZM289.144 146.893H285.359V130.536H297.72V133.574H289.144V146.893Z" fill="white"/>
<path d="M310.406 137.897H318.257V140.935H310.406V137.897ZM310.686 146.893H306.901V130.536H319.262V133.574H310.686V146.893Z" fill="white"/>
<path d="M319.013 146.893L326.304 130.536H330.043L337.357 146.893H333.384L327.402 132.452H328.898L322.892 146.893H319.013ZM322.659 143.388L323.664 140.514H332.076L333.104 143.388H322.659Z" fill="white"/>
<path d="M339.054 146.893V130.536H342.84V146.893H339.054Z" fill="white"/>
<path d="M350.11 146.893V133.621H344.876V130.536H359.13V133.621H353.895V146.893H350.11Z" fill="white"/>
<path d="M372.383 130.536H376.169V146.893H372.383V130.536ZM364.952 146.893H361.167V130.536H364.952V146.893ZM372.663 140.187H364.672V136.985H372.663V140.187Z" fill="white"/>
<path d="M201.342 175.129L208.633 158.772H212.372L219.686 175.129H215.713L209.731 160.688H211.227L205.221 175.129H201.342ZM204.988 171.624L205.992 168.75H214.405L215.433 171.624H204.988Z" fill="white"/>
<path d="M228.983 175.41C227.721 175.41 226.545 175.207 225.454 174.802C224.38 174.381 223.445 173.79 222.65 173.026C221.856 172.263 221.233 171.367 220.781 170.339C220.345 169.311 220.127 168.181 220.127 166.951C220.127 165.72 220.345 164.59 220.781 163.562C221.233 162.534 221.856 161.638 222.65 160.875C223.46 160.112 224.403 159.527 225.478 159.122C226.553 158.702 227.729 158.492 229.006 158.492C230.424 158.492 231.701 158.741 232.839 159.239C233.991 159.722 234.957 160.439 235.736 161.389L233.306 163.632C232.745 162.994 232.122 162.519 231.437 162.207C230.751 161.88 230.003 161.716 229.193 161.716C228.43 161.716 227.729 161.841 227.09 162.09C226.451 162.339 225.898 162.698 225.431 163.165C224.964 163.632 224.598 164.185 224.333 164.824C224.084 165.463 223.959 166.172 223.959 166.951C223.959 167.73 224.084 168.438 224.333 169.077C224.598 169.716 224.964 170.269 225.431 170.736C225.898 171.203 226.451 171.562 227.09 171.811C227.729 172.06 228.43 172.185 229.193 172.185C230.003 172.185 230.751 172.029 231.437 171.718C232.122 171.39 232.745 170.9 233.306 170.245L235.736 172.489C234.957 173.439 233.991 174.163 232.839 174.662C231.701 175.16 230.416 175.41 228.983 175.41Z" fill="white"/>
<path d="M235.846 175.129L243.137 158.772H246.876L254.19 175.129H250.217L244.235 160.688H245.731L239.725 175.129H235.846ZM239.491 171.624L240.496 168.75H248.909L249.937 171.624H239.491Z" fill="white"/>
<path d="M255.887 175.129V158.772H263.318C265.094 158.772 266.659 159.115 268.015 159.8C269.37 160.47 270.429 161.412 271.193 162.628C271.956 163.843 272.338 165.284 272.338 166.951C272.338 168.602 271.956 170.043 271.193 171.274C270.429 172.489 269.37 173.439 268.015 174.124C266.659 174.794 265.094 175.129 263.318 175.129H255.887ZM259.672 172.021H263.131C264.221 172.021 265.164 171.819 265.958 171.414C266.768 170.993 267.391 170.401 267.828 169.638C268.279 168.875 268.505 167.979 268.505 166.951C268.505 165.907 268.279 165.011 267.828 164.263C267.391 163.5 266.768 162.916 265.958 162.511C265.164 162.09 264.221 161.88 263.131 161.88H259.672V172.021Z" fill="white"/>
<path d="M278.674 165.362H286.549V168.306H278.674V165.362ZM278.955 172.091H287.858V175.129H275.192V158.772H287.554V161.81H278.955V172.091Z" fill="white"/>
<path d="M290.87 175.129V158.772H294.001L300.965 170.316H299.305L306.152 158.772H309.26L309.307 175.129H305.755L305.732 164.217H306.386L300.918 173.4H299.212L293.627 164.217H294.422V175.129H290.87Z" fill="white"/>
<path d="M317.254 175.129V168.446L318.118 170.736L310.921 158.772H314.94L320.455 167.955H318.142L323.68 158.772H327.395L320.198 170.736L321.039 168.446V175.129H317.254Z" fill="white"/>
<path d="M197.474 203.365L204.765 187.008H208.504L215.818 203.365H211.845L205.863 188.924H207.359L201.353 203.365H197.474ZM201.12 199.86L202.124 196.986H210.537L211.565 199.86H201.12Z" fill="white"/>
<path d="M220.903 199.626L220.693 195.257L228.521 187.008H232.727L225.67 194.602L223.567 196.846L220.903 199.626ZM217.515 203.365V187.008H221.277V203.365H217.515ZM228.708 203.365L222.89 196.238L225.367 193.551L233.125 203.365H228.708Z" fill="white"/>
<path d="M237.803 203.365L232.451 187.008H236.377L241.027 201.496H239.065L243.925 187.008H247.43L252.104 201.496H250.211L254.978 187.008H258.6L253.249 203.365H249.183L245.047 190.653H246.122L241.869 203.365H237.803Z" fill="white"/>
<path d="M258.016 203.365L265.306 187.008H269.045L276.359 203.365H272.387L266.405 188.924H267.9L261.895 203.365H258.016ZM261.661 199.86L262.666 196.986H271.078L272.106 199.86H261.661Z" fill="white"/>
<path d="M278.056 203.365V187.008H281.188L290.838 198.785H289.32V187.008H293.058V203.365H289.95L280.276 191.588H281.795V203.365H278.056Z" fill="white"/>
<path d="M304.827 203.646C303.534 203.646 302.342 203.443 301.251 203.038C300.177 202.617 299.234 202.025 298.424 201.262C297.629 200.499 297.006 199.603 296.555 198.575C296.118 197.547 295.9 196.417 295.9 195.186C295.9 193.956 296.118 192.826 296.555 191.798C297.006 190.77 297.637 189.874 298.447 189.111C299.257 188.348 300.208 187.763 301.298 187.358C302.389 186.938 303.588 186.727 304.897 186.727C306.346 186.727 307.646 186.969 308.799 187.452C309.968 187.935 310.949 188.636 311.743 189.555L309.313 191.798C308.721 191.175 308.075 190.715 307.374 190.419C306.673 190.108 305.909 189.952 305.084 189.952C304.289 189.952 303.565 190.077 302.911 190.326C302.256 190.575 301.688 190.934 301.205 191.401C300.737 191.868 300.371 192.421 300.106 193.06C299.857 193.699 299.733 194.408 299.733 195.186C299.733 195.95 299.857 196.651 300.106 197.29C300.371 197.928 300.737 198.489 301.205 198.972C301.688 199.439 302.248 199.798 302.887 200.047C303.541 200.296 304.258 200.421 305.037 200.421C305.785 200.421 306.509 200.304 307.21 200.07C307.927 199.821 308.62 199.408 309.29 198.832L311.44 201.566C310.552 202.236 309.516 202.75 308.332 203.108C307.163 203.466 305.995 203.646 304.827 203.646ZM307.981 201.075V194.929H311.44V201.566L307.981 201.075Z" fill="white"/>
<path d="M312.806 203.365L320.097 187.008H323.836L331.15 203.365H327.177L321.195 188.924H322.691L316.685 203.365H312.806ZM316.452 199.86L317.457 196.986H325.869L326.897 199.86H316.452Z" fill="white"/>
<g filter="url(#filter0_d_18_177)">
<path d="M130.876 252.391V231.037H141.797C144.604 231.037 146.699 231.555 148.082 232.593C149.465 233.609 150.156 234.952 150.156 236.619C150.156 237.718 149.861 238.684 149.271 239.517C148.702 240.331 147.889 240.982 146.831 241.47C145.794 241.938 144.553 242.171 143.109 242.171L143.719 240.707C145.224 240.707 146.536 240.941 147.655 241.409C148.773 241.856 149.638 242.517 150.248 243.392C150.878 244.246 151.193 245.293 151.193 246.534C151.193 248.385 150.441 249.828 148.936 250.866C147.451 251.883 145.275 252.391 142.408 252.391H130.876ZM136.855 248.029H141.92C142.957 248.029 143.74 247.856 144.268 247.51C144.818 247.144 145.092 246.595 145.092 245.863C145.092 245.131 144.818 244.592 144.268 244.246C143.74 243.88 142.957 243.697 141.92 243.697H136.428V239.517H141.004C142.021 239.517 142.784 239.345 143.292 238.999C143.801 238.653 144.055 238.134 144.055 237.443C144.055 236.752 143.801 236.243 143.292 235.918C142.784 235.572 142.021 235.399 141.004 235.399H136.855V248.029Z" fill="black"/>
<path d="M156.696 252.666C155.72 252.666 154.897 252.34 154.225 251.689C153.554 251.039 153.219 250.215 153.219 249.218C153.219 248.181 153.554 247.357 154.225 246.747C154.897 246.117 155.72 245.802 156.696 245.802C157.673 245.802 158.496 246.117 159.167 246.747C159.839 247.357 160.174 248.181 160.174 249.218C160.174 250.215 159.839 251.039 159.167 251.689C158.496 252.34 157.673 252.666 156.696 252.666Z" fill="black"/>
<path d="M168.783 240.402H178.637V245.07H168.783V240.402ZM169.21 252.391H163.17V231.037H179.918V235.704H169.21V252.391Z" fill="black"/>
<path d="M184.611 252.666C183.635 252.666 182.811 252.34 182.14 251.689C181.469 251.039 181.133 250.215 181.133 249.218C181.133 248.181 181.469 247.357 182.14 246.747C182.811 246.117 183.635 245.802 184.611 245.802C185.587 245.802 186.411 246.117 187.082 246.747C187.753 247.357 188.088 248.181 188.088 249.218C188.088 250.215 187.753 251.039 187.082 251.689C186.411 252.34 185.587 252.666 184.611 252.666Z" fill="black"/>
<path d="M189.475 252.391L198.901 231.037H204.85L214.307 252.391H208.023L200.64 233.996H203.02L195.637 252.391H189.475ZM194.631 248.242L196.186 243.788H206.619L208.175 248.242H194.631Z" fill="black"/>
</g>
<g filter="url(#filter1_d_18_177)">
<path d="M119.538 108.75H409.054V262.355C409.054 337.476 352.185 400.4 277.447 407.975L267.698 408.963L251.805 407.425C176.781 400.165 119.538 337.115 119.538 261.74V108.75Z" stroke="black" stroke-width="5.5"/>
<path d="M129.003 391.936L136.387 383.911L137.923 385.324L136.129 394.131L135.315 393.382L143.884 390.809L145.409 392.212L138.049 400.258L136.306 398.655L141.22 393.29L141.541 393.586L134.714 395.623L133.877 394.853L135.282 387.827L135.672 388.185L130.746 393.539L129.003 391.936Z" fill="black"/>
<path d="M145.102 406.04C144.424 405.508 143.882 404.904 143.475 404.228C143.076 403.559 142.822 402.857 142.711 402.123C142.608 401.396 142.65 400.67 142.837 399.945C143.031 399.226 143.379 398.548 143.879 397.911C144.379 397.274 144.955 396.775 145.607 396.415C146.267 396.062 146.967 395.852 147.706 395.785C148.445 395.718 149.187 395.799 149.932 396.027C150.677 396.256 151.384 396.633 152.054 397.159C152.732 397.691 153.266 398.289 153.657 398.952C154.056 399.621 154.306 400.319 154.409 401.047C154.519 401.78 154.481 402.51 154.295 403.235C154.115 403.952 153.772 404.633 153.265 405.279C152.765 405.916 152.182 406.415 151.515 406.777C150.855 407.13 150.156 407.34 149.417 407.407C148.692 407.472 147.957 407.39 147.212 407.162C146.476 406.94 145.772 406.566 145.102 406.04ZM146.417 404.34C146.801 404.641 147.204 404.851 147.625 404.971C148.055 405.097 148.488 405.133 148.926 405.08C149.363 405.028 149.779 404.885 150.172 404.653C150.574 404.427 150.935 404.11 151.256 403.701C151.576 403.293 151.799 402.866 151.923 402.423C152.055 401.985 152.095 401.547 152.042 401.11C151.997 400.679 151.863 400.27 151.639 399.883C151.415 399.495 151.111 399.151 150.727 398.85C150.343 398.548 149.936 398.335 149.507 398.209C149.085 398.09 148.656 398.056 148.219 398.109C147.781 398.162 147.362 398.301 146.96 398.527C146.566 398.759 146.209 399.08 145.888 399.488C145.574 399.889 145.348 400.312 145.209 400.757C145.085 401.201 145.045 401.639 145.09 402.07C145.143 402.507 145.281 402.92 145.505 403.307C145.729 403.694 146.034 404.038 146.417 404.34Z" fill="black"/>
<path d="M154.527 412.664L159.515 405.356L156.633 403.388L157.792 401.69L165.641 407.047L164.482 408.746L161.6 406.778L156.611 414.087L154.527 412.664Z" fill="black"/>
<path d="M164.219 418.884L168.77 411.295L165.778 409.501L166.835 407.737L174.985 412.625L173.927 414.388L170.935 412.593L166.384 420.182L164.219 418.884Z" fill="black"/>
<path d="M176.911 426.101C176.143 425.708 175.496 425.219 174.968 424.633C174.448 424.052 174.065 423.411 173.816 422.712C173.577 422.018 173.48 421.297 173.524 420.549C173.578 419.807 173.79 419.075 174.16 418.354C174.529 417.633 175 417.034 175.571 416.557C176.152 416.084 176.798 415.745 177.511 415.538C178.224 415.332 178.968 415.269 179.742 415.351C180.517 415.433 181.284 415.669 182.042 416.057C182.809 416.45 183.447 416.935 183.957 417.512C184.476 418.093 184.855 418.731 185.094 419.425C185.343 420.124 185.445 420.848 185.4 421.595C185.36 422.333 185.153 423.067 184.779 423.797C184.409 424.518 183.932 425.12 183.346 425.601C182.766 426.074 182.119 426.414 181.406 426.62C180.707 426.822 179.971 426.882 179.196 426.8C178.43 426.723 177.668 426.49 176.911 426.101ZM177.877 424.181C178.312 424.404 178.747 424.534 179.183 424.57C179.629 424.612 180.061 424.565 180.481 424.43C180.9 424.295 181.281 424.076 181.623 423.773C181.974 423.474 182.268 423.094 182.505 422.632C182.742 422.17 182.879 421.709 182.916 421.25C182.963 420.795 182.918 420.358 182.783 419.938C182.657 419.524 182.447 419.148 182.153 418.81C181.859 418.473 181.495 418.193 181.061 417.97C180.627 417.748 180.187 417.616 179.741 417.574C179.305 417.537 178.877 417.586 178.458 417.721C178.038 417.856 177.653 418.073 177.302 418.372C176.959 418.675 176.67 419.057 176.433 419.519C176.201 419.972 176.059 420.431 176.008 420.895C175.971 421.354 176.016 421.791 176.141 422.206C176.277 422.625 176.491 423.004 176.785 423.341C177.079 423.678 177.443 423.958 177.877 424.181Z" fill="black"/>
<path d="M188.209 425.182C187.829 425.014 187.558 424.74 187.396 424.362C187.248 423.978 187.264 423.582 187.445 423.174C187.626 422.766 187.904 422.497 188.279 422.368C188.668 422.233 189.053 422.25 189.433 422.419C189.822 422.591 190.093 422.864 190.245 423.238C190.402 423.603 190.389 423.99 190.209 424.398C190.028 424.806 189.746 425.084 189.362 425.233C188.982 425.371 188.598 425.354 188.209 425.182ZM185.944 430.296C185.564 430.127 185.293 429.854 185.132 429.476C184.983 429.092 185 428.696 185.181 428.288C185.361 427.879 185.64 427.611 186.015 427.482C186.404 427.347 186.788 427.364 187.168 427.532C187.557 427.705 187.828 427.978 187.98 428.352C188.137 428.717 188.125 429.103 187.944 429.512C187.763 429.92 187.481 430.198 187.097 430.346C186.718 430.485 186.333 430.468 185.944 430.296Z" fill="black"/>
<path d="M201.746 436.344L204.603 427.969L201.301 426.842L201.965 424.896L210.959 427.965L210.295 429.911L206.992 428.784L204.134 437.159L201.746 436.344Z" fill="black"/>
<path d="M215.669 440.738C214.836 440.514 214.1 440.171 213.461 439.709C212.832 439.25 212.322 438.705 211.932 438.073C211.553 437.444 211.306 436.76 211.193 436.02C211.09 435.282 211.144 434.522 211.354 433.74C211.564 432.958 211.898 432.273 212.357 431.687C212.825 431.103 213.386 430.635 214.04 430.284C214.693 429.932 215.407 429.715 216.182 429.633C216.957 429.55 217.756 429.62 218.578 429.841C219.411 430.064 220.137 430.404 220.756 430.861C221.386 431.32 221.89 431.864 222.27 432.493C222.659 433.124 222.911 433.81 223.024 434.55C223.14 435.28 223.091 436.042 222.879 436.834C222.669 437.616 222.328 438.305 221.857 438.899C221.388 439.482 220.827 439.95 220.173 440.302C219.533 440.646 218.825 440.859 218.05 440.941C217.285 441.026 216.491 440.958 215.669 440.738ZM216.211 438.657C216.683 438.784 217.136 438.819 217.57 438.764C218.014 438.711 218.427 438.575 218.809 438.355C219.191 438.134 219.517 437.84 219.788 437.472C220.069 437.107 220.276 436.673 220.411 436.172C220.546 435.67 220.583 435.191 220.523 434.734C220.473 434.279 220.338 433.861 220.118 433.48C219.907 433.101 219.623 432.777 219.265 432.509C218.907 432.241 218.492 432.043 218.021 431.917C217.549 431.79 217.092 431.753 216.647 431.806C216.213 431.862 215.805 431.999 215.423 432.22C215.042 432.44 214.71 432.732 214.429 433.098C214.158 433.466 213.956 433.901 213.821 434.402C213.689 434.894 213.647 435.372 213.694 435.836C213.754 436.293 213.889 436.711 214.1 437.09C214.32 437.472 214.609 437.797 214.967 438.065C215.325 438.333 215.74 438.531 216.211 438.657Z" fill="black"/>
<path d="M235.784 444.876C234.922 444.742 234.114 444.5 233.359 444.151C232.605 443.792 232.016 443.39 231.591 442.946L232.731 441.2C233.141 441.6 233.643 441.957 234.235 442.27C234.839 442.574 235.465 442.777 236.111 442.877C236.604 442.954 237.006 442.97 237.318 442.924C237.642 442.869 237.889 442.766 238.06 442.614C238.231 442.462 238.334 442.273 238.369 442.047C238.414 441.76 238.336 441.516 238.136 441.317C237.938 441.107 237.662 440.922 237.308 440.762C236.956 440.592 236.562 440.425 236.125 440.262C235.699 440.091 235.272 439.898 234.843 439.684C234.424 439.472 234.048 439.224 233.714 438.94C233.379 438.657 233.123 438.312 232.945 437.906C232.776 437.502 232.737 437.012 232.827 436.437C232.923 435.822 233.174 435.288 233.581 434.836C233.999 434.376 234.565 434.049 235.279 433.855C236.004 433.653 236.875 433.631 237.89 433.789C238.568 433.895 239.222 434.081 239.853 434.348C240.486 434.604 241.029 434.93 241.482 435.327L240.417 437.1C239.959 436.734 239.489 436.446 239.007 436.234C238.527 436.012 238.045 435.863 237.563 435.788C237.081 435.713 236.677 435.708 236.352 435.773C236.026 435.838 235.782 435.952 235.62 436.116C235.46 436.27 235.361 436.464 235.324 436.7C235.281 436.977 235.359 437.221 235.557 437.43C235.757 437.63 236.034 437.81 236.387 437.97C236.741 438.13 237.13 438.296 237.556 438.467C237.991 438.64 238.419 438.828 238.839 439.03C239.27 439.234 239.653 439.477 239.987 439.761C240.321 440.044 240.572 440.388 240.741 440.793C240.919 441.199 240.964 441.684 240.876 442.248C240.782 442.854 240.526 443.382 240.109 443.832C239.692 444.282 239.121 444.608 238.396 444.81C237.681 445.014 236.81 445.036 235.784 444.876Z" fill="black"/>
<path d="M247.352 439.555L252.579 440.037L252.399 441.992L247.171 441.509L247.352 439.555ZM247.126 444.04L253.036 444.585L252.85 446.601L244.442 445.826L245.444 434.967L253.65 435.724L253.464 437.741L247.755 437.214L247.126 444.04Z" fill="black"/>
<path d="M259.204 440.306L264.452 440.46L264.395 442.422L259.147 442.268L259.204 440.306ZM259.26 444.796L265.192 444.971L265.133 446.995L256.693 446.747L257.013 435.847L265.251 436.089L265.191 438.113L259.461 437.945L259.26 444.796Z" fill="black"/>
<path d="M271.158 444.335L270.915 441.428L275.937 435.749L278.739 435.65L274.216 440.875L272.867 442.419L271.158 444.335ZM268.988 446.905L268.604 436.007L271.111 435.919L271.495 446.817L268.988 446.905ZM276.446 446.642L272.402 442.03L273.989 440.182L279.388 446.539L276.446 446.642Z" fill="black"/>
<path d="M288.253 445.628L291.511 434.142L293.978 433.787L300.358 443.886L297.736 444.263L292.418 435.302L293.405 435.16L290.813 445.259L288.253 445.628ZM290.326 442.969L290.716 440.977L296.267 440.178L297.218 441.977L290.326 442.969Z" fill="black"/>
<path d="M303.317 443.222L301.008 432.565L303.048 432.123L310.999 438.434L310.009 438.648L308.347 430.975L310.783 430.447L313.092 441.105L311.067 441.544L303.101 435.236L304.091 435.021L305.753 442.695L303.317 443.222Z" fill="black"/>
<path d="M316.785 440.07L313.711 429.608L318.464 428.211C319.6 427.878 320.666 427.803 321.662 427.986C322.654 428.16 323.509 428.564 324.226 429.198C324.942 429.831 325.457 430.681 325.77 431.748C326.081 432.804 326.107 433.797 325.851 434.728C325.591 435.649 325.092 436.456 324.354 437.149C323.613 437.832 322.674 438.34 321.538 438.674L316.785 440.07ZM318.622 437.371L320.834 436.721C321.532 436.516 322.097 436.21 322.529 435.801C322.968 435.38 323.255 434.884 323.391 434.314C323.536 433.741 323.512 433.125 323.319 432.468C323.123 431.8 322.81 431.27 322.381 430.876C321.958 430.47 321.45 430.213 320.856 430.107C320.268 429.987 319.626 430.029 318.929 430.234L316.716 430.884L318.622 437.371Z" fill="black"/>
<path d="M339.941 432.147L336.565 423.968L333.339 425.299L332.555 423.398L341.339 419.773L342.123 421.673L338.898 423.005L342.274 431.184L339.941 432.147Z" fill="black"/>
<path d="M353.304 426.266C352.531 426.647 351.752 426.875 350.966 426.949C350.19 427.019 349.447 426.945 348.738 426.728C348.038 426.505 347.401 426.153 346.828 425.672C346.264 425.186 345.803 424.579 345.445 423.853C345.087 423.126 344.886 422.391 344.844 421.648C344.811 420.9 344.924 420.178 345.184 419.483C345.443 418.788 345.837 418.154 346.365 417.581C346.893 417.008 347.539 416.533 348.303 416.156C349.076 415.775 349.846 415.552 350.613 415.487C351.389 415.417 352.127 415.493 352.827 415.715C353.536 415.933 354.178 416.282 354.751 416.764C355.32 417.236 355.785 417.84 356.148 418.576C356.506 419.303 356.704 420.045 356.742 420.802C356.775 421.55 356.661 422.272 356.402 422.967C356.147 423.648 355.756 424.275 355.228 424.848C354.709 425.417 354.068 425.889 353.304 426.266ZM352.339 424.344C352.777 424.129 353.141 423.857 353.431 423.528C353.73 423.196 353.95 422.821 354.092 422.403C354.234 421.986 354.285 421.55 354.246 421.095C354.216 420.635 354.086 420.172 353.857 419.706C353.627 419.24 353.339 418.855 352.992 418.552C352.655 418.243 352.278 418.018 351.86 417.876C351.452 417.73 351.025 417.674 350.579 417.709C350.133 417.743 349.691 417.869 349.254 418.085C348.816 418.3 348.447 418.575 348.148 418.907C347.858 419.236 347.643 419.608 347.501 420.025C347.359 420.443 347.303 420.881 347.333 421.341C347.372 421.797 347.507 422.257 347.736 422.723C347.961 423.179 348.245 423.567 348.587 423.884C348.933 424.188 349.311 424.413 349.719 424.559C350.136 424.701 350.567 424.755 351.014 424.72C351.46 424.685 351.902 424.56 352.339 424.344Z" fill="black"/>
<path d="M366.786 411.555L371.205 408.749L372.29 410.459L367.871 413.265L366.786 411.555ZM370.158 416.518L368.027 417.871L362.183 408.665L369.14 404.248L370.226 405.957L365.399 409.022L370.158 416.518Z" fill="black"/>
<path d="M378.235 411.126L371.912 402.241L373.968 400.778L380.291 409.662L378.235 411.126Z" fill="black"/>
<path d="M385.108 406.095L378.291 397.583L379.921 396.278L389.851 398.385L389.06 399.018L384.152 392.89L386.098 391.331L392.915 399.843L391.297 401.138L381.355 399.041L382.146 398.408L387.054 404.537L385.108 406.095Z" fill="black"/>
<path d="M395.76 397.271L388.345 389.275L391.978 385.906C392.846 385.101 393.767 384.559 394.74 384.28C395.706 383.993 396.651 383.974 397.575 384.222C398.499 384.47 399.339 385.001 400.094 385.816C400.843 386.623 401.31 387.501 401.494 388.448C401.672 389.388 401.585 390.333 401.233 391.282C400.874 392.224 400.261 393.098 399.392 393.903L395.76 397.271ZM396.202 394.036L397.892 392.468C398.425 391.974 398.794 391.448 398.999 390.889C399.204 390.317 399.241 389.745 399.108 389.174C398.983 388.596 398.687 388.056 398.221 387.553C397.748 387.043 397.231 386.707 396.672 386.547C396.112 386.371 395.543 386.368 394.963 386.537C394.384 386.692 393.828 387.016 393.295 387.511L391.604 389.078L396.202 394.036Z" fill="black"/>
<path d="M417.646 330.926L460 370.359L417.646 430.726V330.926Z" fill="black"/>
<path d="M114.354 330.926L72 370.359L114.354 430.726V330.926Z" fill="black"/>
<path fill-rule="evenodd" clip-rule="evenodd" d="M266.243 427.318C197.972 427.318 138.947 389.404 110.87 334.361L114.693 330.82C141.647 384.865 199.278 422.318 266.243 422.318C332.952 422.318 390.398 385.151 417.483 331.44L421.294 334.991C393.089 389.693 334.254 427.318 266.243 427.318Z" fill="black"/>
<path fill-rule="evenodd" clip-rule="evenodd" d="M264.48 462.604C186.749 462.604 119.546 419.437 87.5784 356.767L91.4012 353.227C122.246 414.898 188.056 457.604 264.48 457.604C340.611 457.604 406.21 415.224 437.203 353.934L441.014 357.484C408.901 419.766 341.914 462.604 264.48 462.604Z" fill="black"/>
</g>
<path d="M187.865 334.982C187.865 333.273 189.25 331.887 190.959 331.887H338.607C340.316 331.887 341.701 333.273 341.701 334.982C341.701 336.691 340.316 338.076 338.607 338.076H190.959C189.25 338.076 187.865 336.691 187.865 334.982Z" fill="black"/>
<path d="M208.641 397.312C206.932 397.312 205.547 395.927 205.547 394.218V334.982C205.547 333.273 206.932 331.887 208.641 331.887C210.35 331.887 211.736 333.273 211.736 334.982V394.218C211.736 395.927 210.35 397.312 208.641 397.312Z" fill="black"/>
<path d="M225.44 404.385C223.731 404.385 222.345 403 222.345 401.291V338.518C222.345 336.809 223.731 335.424 225.44 335.424C227.149 335.424 228.534 336.809 228.534 338.518V401.291C228.534 403 227.149 404.385 225.44 404.385Z" fill="black"/>
<path d="M304.126 404.385C302.417 404.385 301.032 403 301.032 401.291V338.518C301.032 336.809 302.417 335.424 304.126 335.424C305.835 335.424 307.221 336.809 307.221 338.518V401.291C307.221 403 305.835 404.385 304.126 404.385Z" fill="black"/>
<path d="M320.925 399.08C319.216 399.08 317.83 397.695 317.83 395.986V336.75C317.83 335.041 319.216 333.655 320.925 333.655C322.634 333.655 324.019 335.041 324.019 336.75V395.986C324.019 397.695 322.634 399.08 320.925 399.08Z" fill="black"/>
<path d="M305.17 289.046H302.424C302.23 288.521 302.035 287.995 301.811 287.469C301.811 287.469 301.811 287.42 301.811 287.391C301.733 287.196 301.645 287.002 301.558 286.797C301.541 286.743 301.518 286.691 301.49 286.642C301.139 285.833 300.759 285.016 300.35 284.178H307.624C307.882 284.178 308.129 284.076 308.312 283.893C308.495 283.71 308.597 283.463 308.597 283.205C308.597 281.139 307.777 279.157 306.316 277.697C304.855 276.236 302.874 275.415 300.808 275.415H278.414C276.606 275.415 274.873 276.133 273.595 277.412C272.317 278.69 271.598 280.423 271.598 282.231V283.205C271.598 283.463 271.701 283.71 271.884 283.893C272.066 284.076 272.314 284.178 272.572 284.178H279.797C279.397 285.016 279.027 285.843 278.677 286.661L278.618 286.788C278.297 287.547 277.995 288.306 277.713 289.046H275.026C272.568 289.049 270.212 290.026 268.474 291.764C266.737 293.502 265.759 295.858 265.757 298.316V305.131C265.769 307.582 266.751 309.928 268.488 311.657C270.225 313.387 272.575 314.359 275.026 314.361H277.713C277.995 315.101 278.297 315.861 278.618 316.62L278.677 316.747C279.027 317.565 279.397 318.392 279.797 319.23H276.467C276.306 319.23 276.149 319.271 276.008 319.347C275.867 319.424 275.747 319.534 275.659 319.668L271.764 325.51C271.739 325.542 271.719 325.578 271.706 325.617C271.706 325.617 271.706 325.617 271.706 325.695C271.654 325.806 271.618 325.924 271.598 326.045V332.861C271.598 333.119 271.701 333.367 271.884 333.549C272.066 333.732 272.314 333.834 272.572 333.834H307.624C307.882 333.834 308.129 333.732 308.312 333.549C308.495 333.367 308.597 333.119 308.597 332.861V326.045C308.589 325.932 308.566 325.821 308.529 325.714C308.529 325.714 308.529 325.714 308.529 325.636C308.515 325.598 308.496 325.561 308.471 325.529L304.576 319.687C304.487 319.544 304.362 319.427 304.213 319.346C304.065 319.266 303.898 319.226 303.729 319.23H300.292C300.691 318.392 301.071 317.574 301.421 316.766C301.45 316.717 301.473 316.665 301.49 316.61C301.704 316.114 301.918 315.637 302.113 315.131C302.15 315.056 302.18 314.978 302.2 314.897C302.278 314.712 302.337 314.537 302.405 314.361H305.17C307.628 314.359 309.984 313.381 311.721 311.644C313.459 309.906 314.437 307.55 314.439 305.092V298.277C314.426 295.826 313.444 293.48 311.708 291.75C309.971 290.021 307.621 289.049 305.17 289.046V289.046ZM301.441 311.255C300.705 309.158 299.541 307.237 298.022 305.615C296.503 303.992 294.663 302.703 292.62 301.83C296.746 299.456 299.788 295.57 301.1 290.994C303.565 297.503 303.685 304.667 301.441 311.255ZM304.216 294.888H305.491C306.635 294.956 307.705 295.473 308.469 296.327C309.233 297.18 309.629 298.301 309.571 299.445V303.963C309.629 305.107 309.233 306.228 308.469 307.081C307.705 307.935 306.635 308.452 305.491 308.519H304.196C305.22 304.034 305.227 299.377 304.216 294.888ZM278.414 277.363H300.808C302.189 277.362 303.526 277.85 304.581 278.741C305.637 279.633 306.342 280.869 306.572 282.231H273.546C273.546 280.94 274.059 279.701 274.972 278.788C275.885 277.876 277.123 277.363 278.414 277.363V277.363ZM290.098 284.178H298.208C298.539 284.84 298.841 285.483 299.182 286.125H296.913C296.655 286.125 296.408 286.228 296.225 286.411C296.042 286.593 295.94 286.841 295.94 287.099C295.94 287.357 296.042 287.605 296.225 287.788C296.408 287.97 296.655 288.073 296.913 288.073H299.834C299.484 290.02 297.624 297.809 290.098 300.867C282.737 297.897 280.799 290.234 280.361 288.073H293.992C294.251 288.073 294.498 287.97 294.681 287.788C294.864 287.605 294.966 287.357 294.966 287.099C294.966 286.841 294.864 286.593 294.681 286.411C294.498 286.228 294.251 286.125 293.992 286.125H281.033C281.325 285.483 281.627 284.84 281.948 284.178H290.098ZM275.96 308.519H274.403C272.319 308.519 270.625 306.475 270.625 303.963V299.445C270.625 296.933 272.319 294.888 274.403 294.888H275.96C274.958 299.377 274.958 304.031 275.96 308.519V308.519ZM279.096 290.994C280.415 295.577 283.453 299.473 287.576 301.869C285.527 302.749 283.684 304.044 282.162 305.673C280.64 307.302 279.473 309.23 278.735 311.333C276.576 304.704 276.703 297.542 279.096 290.994V290.994ZM275.026 312.414C273.085 312.411 271.224 311.639 269.851 310.267C268.479 308.894 267.706 307.033 267.704 305.092V298.277C267.719 296.343 268.497 294.494 269.868 293.13C271.239 291.767 273.092 290.999 275.026 290.994H277.031C276.817 291.646 276.613 292.298 276.438 292.941H274.403C271.248 292.941 268.678 295.862 268.678 299.445V303.963C268.678 307.546 271.248 310.467 274.403 310.467H276.467C276.642 311.109 276.846 311.762 277.061 312.414H275.026ZM306.65 331.887H273.546V327.019H306.65V331.887ZM305.803 325.072H274.393L276.992 321.177H281.335C283.097 321.177 284.548 321.177 285.814 321.177H288.559H288.998H292.347C293.535 321.177 294.859 321.177 296.466 321.177H303.193L305.803 325.072ZM281.948 319.23C281.627 318.568 281.325 317.925 281.033 317.282H282.309C282.567 317.282 282.815 317.18 282.997 316.997C283.18 316.815 283.282 316.567 283.282 316.309C283.282 316.05 283.18 315.803 282.997 315.62C282.815 315.438 282.567 315.335 282.309 315.335H280.196C280.098 315.111 279.991 314.877 279.904 314.653C280.279 311.965 281.418 309.44 283.185 307.38C284.952 305.319 287.274 303.809 289.874 303.028L290.098 302.94L290.322 303.028C298.909 305.949 300.126 313.174 300.273 314.527C300.165 314.79 300.039 315.062 299.922 315.335H285.23C284.971 315.335 284.724 315.438 284.541 315.62C284.359 315.803 284.256 316.05 284.256 316.309C284.256 316.567 284.359 316.815 284.541 316.997C284.724 317.18 284.971 317.282 285.23 317.282H299.065C298.763 317.925 298.462 318.568 298.092 319.23H281.948V319.23ZM312.492 305.092C312.492 307.034 311.72 308.896 310.347 310.27C308.974 311.643 307.112 312.414 305.17 312.414H303.106C303.32 311.762 303.524 311.109 303.709 310.467H305.491C307.151 310.398 308.717 309.676 309.846 308.457C310.975 307.239 311.576 305.623 311.518 303.963V299.445C311.576 297.785 310.975 296.169 309.846 294.95C308.717 293.732 307.151 293.009 305.491 292.941H303.729C303.554 292.298 303.349 291.646 303.135 290.994H305.18C307.119 290.999 308.977 291.772 310.348 293.145C311.718 294.517 312.489 296.376 312.492 298.316V305.092ZM301.782 329.94C301.782 329.682 301.884 329.434 302.067 329.251C302.249 329.069 302.497 328.966 302.755 328.966H304.703C304.961 328.966 305.208 329.069 305.391 329.251C305.574 329.434 305.676 329.682 305.676 329.94C305.676 330.198 305.574 330.446 305.391 330.628C305.208 330.811 304.961 330.913 304.703 330.913H302.755C302.497 330.913 302.249 330.811 302.067 330.628C301.884 330.446 301.782 330.198 301.782 329.94ZM275.493 329.94C275.493 329.682 275.596 329.434 275.778 329.251C275.961 329.069 276.208 328.966 276.467 328.966H299.834C300.093 328.966 300.34 329.069 300.523 329.251C300.705 329.434 300.808 329.682 300.808 329.94C300.808 330.198 300.705 330.446 300.523 330.628C300.34 330.811 300.093 330.913 299.834 330.913H276.467C276.208 330.913 275.961 330.811 275.778 330.628C275.596 330.446 275.493 330.198 275.493 329.94Z" fill="black"/>
<path d="M212.985 311.431C212.985 309.742 214.313 308.373 215.952 308.373H252.441C252.961 308.373 253.229 309.266 252.857 309.64C251.927 310.575 250.949 312.03 250.949 314.01C250.949 316.053 251.992 317.568 252.947 318.527C253.315 318.897 253.052 319.752 252.538 319.752H215.952C214.313 319.752 212.985 318.383 212.985 316.694V311.431Z" fill="black"/>
<path d="M209.464 299.978C209.464 298.289 210.793 296.92 212.431 296.92H247.797C247.797 296.92 245.058 298.742 244.773 302.185C244.488 305.629 247.797 307.427 247.797 307.427H212.431C210.793 307.427 209.464 306.058 209.464 304.369V299.978Z" fill="white"/>
<path fill-rule="evenodd" clip-rule="evenodd" d="M248.335 297.775C248.335 297.775 248.334 297.776 248.334 297.776L248.324 297.783C248.312 297.792 248.29 297.807 248.26 297.829C248.201 297.874 248.11 297.945 247.998 298.041C247.773 298.235 247.465 298.528 247.15 298.916C246.517 299.695 245.879 300.819 245.758 302.272C245.648 303.61 246.225 304.65 246.903 305.404C247.241 305.78 247.59 306.067 247.855 306.259C247.986 306.355 248.094 306.425 248.166 306.47C248.202 306.493 248.229 306.508 248.245 306.518C248.253 306.522 248.258 306.525 248.26 306.526L248.259 306.526L248.259 306.526C248.26 306.526 248.261 306.527 248.261 306.527C248.661 306.746 248.866 307.218 248.757 307.672C248.648 308.127 248.252 308.446 247.797 308.446H212.431C210.246 308.446 208.476 306.621 208.476 304.369V299.978C208.476 297.726 210.246 295.901 212.431 295.901H247.797C248.235 295.901 248.622 296.198 248.746 296.632C248.869 297.064 248.703 297.529 248.336 297.774C248.336 297.775 248.336 297.775 248.335 297.775ZM246.475 306.408C247.164 307.083 247.797 307.427 247.797 307.427H212.431C210.793 307.427 209.464 306.058 209.464 304.369V299.978C209.464 298.289 210.793 296.92 212.431 296.92H247.797C247.797 296.92 247.278 297.265 246.668 297.939C245.878 298.814 244.934 300.241 244.773 302.185C244.613 304.123 245.59 305.539 246.475 306.408Z" fill="black"/>
<path d="M206.927 323.755C206.927 322.066 208.255 320.697 209.893 320.697H245.259C245.259 320.697 242.775 322.298 242.363 325.884C241.95 329.47 245.259 331.204 245.259 331.204H209.893C208.255 331.204 206.927 329.835 206.927 328.147V323.755Z" fill="white"/>
<path fill-rule="evenodd" clip-rule="evenodd" d="M245.786 321.56C245.786 321.56 245.786 321.56 245.786 321.56C245.785 321.56 245.785 321.561 245.784 321.561C245.784 321.561 245.784 321.561 245.784 321.561M244.155 321.717C244.75 321.025 245.259 320.697 245.259 320.697H209.893C208.255 320.697 206.927 322.066 206.927 323.755V328.147C206.927 329.835 208.255 331.204 209.893 331.204H245.259C245.259 331.204 244.617 330.868 243.934 330.185C243.066 329.317 242.132 327.891 242.363 325.884C242.589 323.921 243.435 322.553 244.155 321.717ZM245.708 330.296C245.709 330.297 245.71 330.297 245.711 330.298C245.711 330.298 245.711 330.298 245.711 330.298C246.116 330.512 246.327 330.985 246.221 331.442C246.114 331.9 245.717 332.224 245.259 332.224H209.893C207.709 332.224 205.938 330.398 205.938 328.147V323.755C205.938 321.503 207.709 319.678 209.893 319.678H245.259C245.7 319.678 246.088 319.979 246.21 320.416C246.331 320.851 246.159 321.316 245.788 321.558C245.788 321.559 245.787 321.559 245.786 321.56M245.71 330.297C245.708 330.296 245.704 330.294 245.696 330.289C245.681 330.28 245.655 330.266 245.62 330.244C245.549 330.202 245.443 330.134 245.315 330.041C245.056 329.855 244.715 329.575 244.389 329.204C243.74 328.467 243.182 327.418 243.345 326.004C243.525 324.441 244.152 323.321 244.731 322.591C245.022 322.224 245.299 321.957 245.499 321.786C245.598 321.7 245.677 321.639 245.728 321.602C245.753 321.583 245.771 321.57 245.781 321.564L245.786 321.56L245.785 321.561L245.784 321.561M245.71 330.297H245.71L245.709 330.296" fill="black"/>
<path d="M215.948 311.452H238.999M215.948 314.062H228.531" stroke="white" stroke-width="2" stroke-linecap="round" stroke-linejoin="round"/>
<path d="M236.62 296.57H240.717V302.819C240.717 303.273 240.185 303.5 239.873 303.179L239.018 302.298C238.825 302.099 238.512 302.099 238.319 302.298L237.464 303.179C237.152 303.5 236.62 303.273 236.62 302.819V296.57Z" fill="black"/>
<path d="M209.18 323.341H232.232M209.18 325.951H221.763M212.141 299.645H231.491" stroke="black" stroke-width="2" stroke-linecap="round" stroke-linejoin="round"/>
<defs>
<filter id="filter0_d_18_177" x="126.876" y="231.037" width="91.4307" height="29.6289" filterUnits="userSpaceOnUse" color-interpolation-filters="sRGB">
<feFlood flood-opacity="0" result="BackgroundImageFix"/>
<feColorMatrix in="SourceAlpha" type="matrix" values="0 0 0 0 0 0 0 0 0 0 0 0 0 0 0 0 0 0 127 0" result="hardAlpha"/>
<feOffset dy="4"/>
<feGaussianBlur stdDeviation="2"/>
<feComposite in2="hardAlpha" operator="out"/>
<feColorMatrix type="matrix" values="0 0 0 0 0 0 0 0 0 0 0 0 0 0 0 0 0 0 0.25 0"/>
<feBlend mode="normal" in2="BackgroundImageFix" result="effect1_dropShadow_18_177"/>
<feBlend mode="normal" in="SourceGraphic" in2="effect1_dropShadow_18_177" result="shape"/>
</filter>
<filter id="filter1_d_18_177" x="68" y="106" width="396" height="364.604" filterUnits="userSpaceOnUse" color-interpolation-filters="sRGB">
<feFlood flood-opacity="0" result="BackgroundImageFix"/>
<feColorMatrix in="SourceAlpha" type="matrix" values="0 0 0 0 0 0 0 0 0 0 0 0 0 0 0 0 0 0 127 0" result="hardAlpha"/>
<feOffset dy="4"/>
<feGaussianBlur stdDeviation="2"/>
<feComposite in2="hardAlpha" operator="out"/>
<feColorMatrix type="matrix" values="0 0 0 0 0 0 0 0 0 0 0 0 0 0 0 0 0 0 0.25 0"/>
<feBlend mode="normal" in2="BackgroundImageFix" result="effect1_dropShadow_18_177"/>
<feBlend mode="normal" in="SourceGraphic" in2="effect1_dropShadow_18_177" result="shape"/>
</filter>
</defs>
</svg>
