<svg width="" height="" viewBox="0 0 396 365" fill="none" xmlns="http://www.w3.org/2000/svg">
<rect x="53.6562" y="3.89465" width="285.28" height="112.944" fill="#001D4A"/>
<path d="M84.4325 40.8934V24.536H92.4242C94.4806 24.536 96.0228 24.9255 97.051 25.7044C98.0948 26.4833 98.6166 27.5115 98.6166 28.7889C98.6166 29.6457 98.4063 30.3935 97.9857 31.0322C97.5651 31.6554 96.9887 32.1383 96.2565 32.481C95.5243 32.8237 94.6831 32.9951 93.7328 32.9951L94.1768 32.037C95.205 32.037 96.1163 32.2084 96.9108 32.5511C97.7053 32.8783 98.3207 33.369 98.7569 34.0233C99.2086 34.6776 99.4345 35.4799 99.4345 36.4302C99.4345 37.8322 98.8815 38.9305 97.7754 39.725C96.6693 40.5039 95.0414 40.8934 92.8916 40.8934H84.4325ZM88.1947 38.0425H92.6112C93.5926 38.0425 94.3326 37.8867 94.8311 37.5752C95.3452 37.248 95.6022 36.7339 95.6022 36.0329C95.6022 35.3475 95.3452 34.8412 94.8311 34.514C94.3326 34.1713 93.5926 33.9999 92.6112 33.9999H87.9143V31.2425H91.9569C92.876 31.2425 93.577 31.0868 94.06 30.7752C94.5585 30.448 94.8077 29.9573 94.8077 29.303C94.8077 28.6643 94.5585 28.1892 94.06 27.8776C93.577 27.5505 92.876 27.3869 91.9569 27.3869H88.1947V38.0425Z" fill="white"/>
<path d="M105.782 31.1257H113.657V34.07H105.782V31.1257ZM106.063 37.8556H114.966V40.8934H102.301V24.536H114.662V27.5738H106.063V37.8556Z" fill="white"/>
<path d="M115.828 40.8934L123.119 24.536H126.858L134.172 40.8934H130.199L124.217 26.4522H125.713L119.707 40.8934H115.828ZM119.473 37.3882L120.478 34.514H128.891L129.919 37.3882H119.473Z" fill="white"/>
<path d="M143.469 41.1738C142.207 41.1738 141.031 40.9713 139.94 40.5662C138.865 40.1456 137.93 39.5536 137.136 38.7903C136.341 38.0269 135.718 37.1312 135.267 36.103C134.83 35.0748 134.612 33.9454 134.612 32.7147C134.612 31.484 134.83 30.3546 135.267 29.3264C135.718 28.2982 136.341 27.4025 137.136 26.6391C137.946 25.8758 138.889 25.2916 139.963 24.8865C141.038 24.4659 142.215 24.2556 143.492 24.2556C144.91 24.2556 146.187 24.5049 147.324 25.0034C148.477 25.4863 149.443 26.2029 150.222 27.1532L147.792 29.3965C147.231 28.7578 146.608 28.2826 145.922 27.9711C145.237 27.6439 144.489 27.4803 143.679 27.4803C142.916 27.4803 142.215 27.605 141.576 27.8542C140.937 28.1035 140.384 28.4618 139.917 28.9291C139.449 29.3965 139.083 29.9495 138.818 30.5882C138.569 31.227 138.445 31.9358 138.445 32.7147C138.445 33.4936 138.569 34.2024 138.818 34.8412C139.083 35.4799 139.449 36.0329 139.917 36.5003C140.384 36.9676 140.937 37.3259 141.576 37.5752C142.215 37.8244 142.916 37.949 143.679 37.949C144.489 37.949 145.237 37.7933 145.922 37.4817C146.608 37.1545 147.231 36.6638 147.792 36.0095L150.222 38.2528C149.443 39.2031 148.477 39.9275 147.324 40.426C146.187 40.9245 144.902 41.1738 143.469 41.1738Z" fill="white"/>
<path d="M160.381 41.1738C159.088 41.1738 157.888 40.9635 156.782 40.5429C155.692 40.1222 154.742 39.5303 153.931 38.7669C153.137 38.0036 152.514 37.1078 152.062 36.0796C151.626 35.0515 151.408 33.9298 151.408 32.7147C151.408 31.4996 151.626 30.3779 152.062 29.3498C152.514 28.3216 153.145 27.4258 153.955 26.6625C154.765 25.8991 155.715 25.3072 156.806 24.8865C157.896 24.4659 159.08 24.2556 160.358 24.2556C161.651 24.2556 162.835 24.4659 163.909 24.8865C165 25.3072 165.942 25.8991 166.737 26.6625C167.547 27.4258 168.178 28.3216 168.63 29.3498C169.081 30.3624 169.307 31.484 169.307 32.7147C169.307 33.9298 169.081 35.0593 168.63 36.103C168.178 37.1312 167.547 38.0269 166.737 38.7903C165.942 39.538 165 40.1222 163.909 40.5429C162.835 40.9635 161.658 41.1738 160.381 41.1738ZM160.358 37.949C161.09 37.949 161.76 37.8244 162.367 37.5752C162.99 37.3259 163.536 36.9676 164.003 36.5003C164.47 36.0329 164.829 35.4799 165.078 34.8412C165.343 34.2024 165.475 33.4936 165.475 32.7147C165.475 31.9358 165.343 31.227 165.078 30.5882C164.829 29.9495 164.47 29.3965 164.003 28.9291C163.551 28.4618 163.014 28.1035 162.391 27.8542C161.767 27.605 161.09 27.4803 160.358 27.4803C159.625 27.4803 158.948 27.605 158.325 27.8542C157.717 28.1035 157.18 28.4618 156.712 28.9291C156.245 29.3965 155.879 29.9495 155.614 30.5882C155.365 31.227 155.24 31.9358 155.24 32.7147C155.24 33.478 155.365 34.1869 155.614 34.8412C155.879 35.4799 156.237 36.0329 156.689 36.5003C157.156 36.9676 157.701 37.3259 158.325 37.5752C158.948 37.8244 159.625 37.949 160.358 37.949Z" fill="white"/>
<path d="M172.152 40.8934V24.536H175.284L184.934 36.3133H183.416V24.536H187.154V40.8934H184.047L174.372 29.1161H175.891V40.8934H172.152Z" fill="white"/>
<path d="M205.587 41.1738C204.294 41.1738 203.095 40.9635 201.989 40.5429C200.898 40.1222 199.948 39.5303 199.138 38.7669C198.343 38.0036 197.72 37.1078 197.268 36.0796C196.832 35.0515 196.614 33.9298 196.614 32.7147C196.614 31.4996 196.832 30.3779 197.268 29.3498C197.72 28.3216 198.351 27.4258 199.161 26.6625C199.971 25.8991 200.922 25.3072 202.012 24.8865C203.102 24.4659 204.286 24.2556 205.564 24.2556C206.857 24.2556 208.041 24.4659 209.116 24.8865C210.206 25.3072 211.149 25.8991 211.943 26.6625C212.753 27.4258 213.384 28.3216 213.836 29.3498C214.288 30.3624 214.514 31.484 214.514 32.7147C214.514 33.9298 214.288 35.0593 213.836 36.103C213.384 37.1312 212.753 38.0269 211.943 38.7903C211.149 39.538 210.206 40.1222 209.116 40.5429C208.041 40.9635 206.865 41.1738 205.587 41.1738ZM205.564 37.949C206.296 37.949 206.966 37.8244 207.574 37.5752C208.197 37.3259 208.742 36.9676 209.209 36.5003C209.677 36.0329 210.035 35.4799 210.284 34.8412C210.549 34.2024 210.681 33.4936 210.681 32.7147C210.681 31.9358 210.549 31.227 210.284 30.5882C210.035 29.9495 209.677 29.3965 209.209 28.9291C208.757 28.4618 208.22 28.1035 207.597 27.8542C206.974 27.605 206.296 27.4803 205.564 27.4803C204.832 27.4803 204.154 27.605 203.531 27.8542C202.923 28.1035 202.386 28.4618 201.919 28.9291C201.451 29.3965 201.085 29.9495 200.82 30.5882C200.571 31.227 200.446 31.9358 200.446 32.7147C200.446 33.478 200.571 34.1869 200.82 34.8412C201.085 35.4799 201.443 36.0329 201.895 36.5003C202.363 36.9676 202.908 37.3259 203.531 37.5752C204.154 37.8244 204.832 37.949 205.564 37.949Z" fill="white"/>
<path d="M220.864 31.8968H228.715V34.9346H220.864V31.8968ZM221.144 40.8934H217.359V24.536H229.72V27.5738H221.144V40.8934Z" fill="white"/>
<path d="M242.406 31.8968H250.257V34.9346H242.406V31.8968ZM242.686 40.8934H238.901V24.536H251.262V27.5738H242.686V40.8934Z" fill="white"/>
<path d="M251.013 40.8934L258.304 24.536H262.043L269.357 40.8934H265.384L259.402 26.4522H260.898L254.892 40.8934H251.013ZM254.659 37.3882L255.664 34.514H264.076L265.104 37.3882H254.659Z" fill="white"/>
<path d="M271.054 40.8934V24.536H274.84V40.8934H271.054Z" fill="white"/>
<path d="M282.11 40.8934V27.6206H276.876V24.536H291.13V27.6206H285.895V40.8934H282.11Z" fill="white"/>
<path d="M304.383 24.536H308.169V40.8934H304.383V24.536ZM296.952 40.8934H293.167V24.536H296.952V40.8934ZM304.663 34.1869H296.672V30.9855H304.663V34.1869Z" fill="white"/>
<path d="M133.342 69.1293L140.633 52.7719H144.372L151.686 69.1293H147.713L141.731 54.6881H143.227L137.221 69.1293H133.342ZM136.988 65.6241L137.992 62.7499H146.405L147.433 65.6241H136.988Z" fill="white"/>
<path d="M160.983 69.4097C159.721 69.4097 158.545 69.2071 157.454 68.8021C156.38 68.3815 155.445 67.7895 154.65 67.0262C153.856 66.2628 153.233 65.3671 152.781 64.3389C152.345 63.3107 152.127 62.1813 152.127 60.9506C152.127 59.7199 152.345 58.5905 152.781 57.5623C153.233 56.5341 153.856 55.6383 154.65 54.875C155.46 54.1117 156.403 53.5275 157.478 53.1224C158.553 52.7018 159.729 52.4915 161.006 52.4915C162.424 52.4915 163.701 52.7408 164.839 53.2393C165.991 53.7222 166.957 54.4388 167.736 55.3891L165.306 57.6324C164.745 56.9937 164.122 56.5185 163.437 56.207C162.751 55.8798 162.003 55.7162 161.193 55.7162C160.43 55.7162 159.729 55.8409 159.09 56.0901C158.451 56.3394 157.898 56.6977 157.431 57.165C156.964 57.6324 156.598 58.1854 156.333 58.8241C156.084 59.4628 155.959 60.1717 155.959 60.9506C155.959 61.7295 156.084 62.4383 156.333 63.077C156.598 63.7158 156.964 64.2688 157.431 64.7361C157.898 65.2035 158.451 65.5618 159.09 65.8111C159.729 66.0603 160.43 66.1849 161.193 66.1849C162.003 66.1849 162.751 66.0291 163.437 65.7176C164.122 65.3904 164.745 64.8997 165.306 64.2454L167.736 66.4887C166.957 67.439 165.991 68.1634 164.839 68.6619C163.701 69.1604 162.416 69.4097 160.983 69.4097Z" fill="white"/>
<path d="M167.846 69.1293L175.137 52.7719H178.876L186.19 69.1293H182.217L176.235 54.6881H177.731L171.725 69.1293H167.846ZM171.491 65.6241L172.496 62.7499H180.909L181.937 65.6241H171.491Z" fill="white"/>
<path d="M187.887 69.1293V52.7719H195.318C197.094 52.7719 198.659 53.1146 200.015 53.8001C201.37 54.47 202.429 55.4125 203.193 56.6276C203.956 57.8427 204.338 59.2837 204.338 60.9506C204.338 62.6019 203.956 64.0429 203.193 65.2736C202.429 66.4887 201.37 67.439 200.015 68.1244C198.659 68.7943 197.094 69.1293 195.318 69.1293H187.887ZM191.672 66.0214H195.131C196.221 66.0214 197.164 65.8188 197.958 65.4138C198.768 64.9932 199.391 64.4012 199.828 63.6379C200.279 62.8745 200.505 61.9788 200.505 60.9506C200.505 59.9068 200.279 59.0111 199.828 58.2633C199.391 57.5 198.768 56.9158 197.958 56.5107C197.164 56.0901 196.221 55.8798 195.131 55.8798H191.672V66.0214Z" fill="white"/>
<path d="M210.674 59.3616H218.549V62.3059H210.674V59.3616ZM210.955 66.0915H219.858V69.1293H207.192V52.7719H219.554V55.8097H210.955V66.0915Z" fill="white"/>
<path d="M222.87 69.1293V52.7719H226.001L232.965 64.3155H231.305L238.152 52.7719H241.26L241.307 69.1293H237.755L237.732 58.2166H238.386L232.918 67.4001H231.212L225.627 58.2166H226.422V69.1293H222.87Z" fill="white"/>
<path d="M249.254 69.1293V62.4461L250.118 64.7361L242.921 52.7719H246.94L252.455 61.9554H250.142L255.68 52.7719H259.395L252.198 64.7361L253.039 62.4461V69.1293H249.254Z" fill="white"/>
<path d="M129.474 97.3651L136.765 81.0078H140.504L147.818 97.3651H143.845L137.863 82.9239H139.359L133.353 97.3651H129.474ZM133.12 93.86L134.124 90.9858H142.537L143.565 93.86H133.12Z" fill="white"/>
<path d="M152.903 93.6263L152.693 89.2566L160.521 81.0078H164.727L157.67 88.6023L155.567 90.8456L152.903 93.6263ZM149.515 97.3651V81.0078H153.277V97.3651H149.515ZM160.708 97.3651L154.89 90.238L157.367 87.5507L165.125 97.3651H160.708Z" fill="white"/>
<path d="M169.803 97.3651L164.451 81.0078H168.377L173.027 95.4957H171.065L175.925 81.0078H179.43L184.104 95.4957H182.211L186.978 81.0078H190.6L185.249 97.3651H181.183L177.047 84.6531H178.122L173.869 97.3651H169.803Z" fill="white"/>
<path d="M190.016 97.3651L197.306 81.0078H201.045L208.359 97.3651H204.387L198.405 82.9239H199.9L193.895 97.3651H190.016ZM193.661 93.86L194.666 90.9858H203.078L204.106 93.86H193.661Z" fill="white"/>
<path d="M210.056 97.3651V81.0078H213.188L222.838 92.7851H221.32V81.0078H225.058V97.3651H221.95L212.276 85.5879H213.795V97.3651H210.056Z" fill="white"/>
<path d="M236.827 97.6456C235.534 97.6456 234.342 97.443 233.251 97.038C232.177 96.6174 231.234 96.0254 230.424 95.2621C229.629 94.4987 229.006 93.603 228.555 92.5748C228.118 91.5466 227.9 90.4172 227.9 89.1865C227.9 87.9558 228.118 86.8263 228.555 85.7982C229.006 84.77 229.637 83.8742 230.447 83.1109C231.257 82.3475 232.208 81.7634 233.298 81.3583C234.389 80.9377 235.588 80.7274 236.897 80.7274C238.346 80.7274 239.646 80.9689 240.799 81.4518C241.968 81.9347 242.949 82.6357 243.743 83.5549L241.313 85.7982C240.721 85.175 240.075 84.7155 239.374 84.4195C238.673 84.1079 237.909 83.9521 237.084 83.9521C236.289 83.9521 235.565 84.0768 234.911 84.326C234.256 84.5753 233.688 84.9336 233.205 85.4009C232.737 85.8683 232.371 86.4213 232.106 87.06C231.857 87.6987 231.733 88.4076 231.733 89.1865C231.733 89.9498 231.857 90.6508 232.106 91.2896C232.371 91.9283 232.737 92.4891 233.205 92.972C233.688 93.4394 234.248 93.7977 234.887 94.0469C235.541 94.2962 236.258 94.4208 237.037 94.4208C237.785 94.4208 238.509 94.304 239.21 94.0703C239.927 93.8211 240.62 93.4082 241.29 92.8318L243.44 95.5658C242.552 96.2357 241.516 96.7498 240.332 97.1081C239.163 97.4664 237.995 97.6456 236.827 97.6456ZM239.981 95.0751V88.9294H243.44V95.5658L239.981 95.0751Z" fill="white"/>
<path d="M244.806 97.3651L252.097 81.0078H255.836L263.15 97.3651H259.177L253.195 82.9239H254.691L248.685 97.3651H244.806ZM248.452 93.86L249.457 90.9858H257.869L258.897 93.86H248.452Z" fill="white"/>
<g filter="url(#filter0_d_17_30)">
<path d="M62.8763 146.391V125.037H73.7975C76.604 125.037 78.6988 125.555 80.0817 126.593C81.4647 127.609 82.1562 128.952 82.1562 130.619C82.1562 131.718 81.8613 132.684 81.2715 133.517C80.702 134.331 79.8885 134.982 78.831 135.47C77.7938 135.938 76.5532 136.171 75.1092 136.171L75.7194 134.707C77.2243 134.707 78.5361 134.941 79.6547 135.409C80.7732 135.856 81.6376 136.517 82.2477 137.392C82.8781 138.246 83.1934 139.293 83.1934 140.534C83.1934 142.385 82.4409 143.828 80.9359 144.866C79.4513 145.883 77.2752 146.391 74.4076 146.391H62.8763ZM68.8555 142.029H73.9195C74.9567 142.029 75.7397 141.856 76.2685 141.51C76.8176 141.144 77.0921 140.595 77.0921 139.863C77.0921 139.131 76.8176 138.592 76.2685 138.246C75.7397 137.88 74.9567 137.697 73.9195 137.697H68.4284V133.517H73.0043C74.0212 133.517 74.7838 133.345 75.2923 132.999C75.8007 132.653 76.0549 132.134 76.0549 131.443C76.0549 130.752 75.8007 130.243 75.2923 129.918C74.7838 129.572 74.0212 129.399 73.0043 129.399H68.8555V142.029Z" fill="black"/>
<path d="M88.6964 146.666C87.7202 146.666 86.8965 146.34 86.2254 145.689C85.5543 145.039 85.2187 144.215 85.2187 143.218C85.2187 142.181 85.5543 141.357 86.2254 140.747C86.8965 140.117 87.7202 139.802 88.6964 139.802C89.6726 139.802 90.4963 140.117 91.1674 140.747C91.8385 141.357 92.1741 142.181 92.1741 143.218C92.1741 144.215 91.8385 145.039 91.1674 145.689C90.4963 146.34 89.6726 146.666 88.6964 146.666Z" fill="black"/>
<path d="M100.783 134.402H110.637V139.07H100.783V134.402ZM101.21 146.391H95.1699V125.037H111.918V129.704H101.21V146.391Z" fill="black"/>
<path d="M116.611 146.666C115.635 146.666 114.811 146.34 114.14 145.689C113.469 145.039 113.133 144.215 113.133 143.218C113.133 142.181 113.469 141.357 114.14 140.747C114.811 140.117 115.635 139.802 116.611 139.802C117.587 139.802 118.411 140.117 119.082 140.747C119.753 141.357 120.088 142.181 120.088 143.218C120.088 144.215 119.753 145.039 119.082 145.689C118.411 146.34 117.587 146.666 116.611 146.666Z" fill="black"/>
<path d="M121.475 146.391L130.901 125.037H136.85L146.307 146.391H140.023L132.64 127.996H135.02L127.637 146.391H121.475ZM126.631 142.242L128.186 137.788H138.619L140.175 142.242H126.631Z" fill="black"/>
</g>
<g filter="url(#filter1_d_17_30)">
<path d="M51.538 2.75006H341.054V156.355C341.054 231.476 284.185 294.4 209.447 301.975L199.698 302.963L183.805 301.425C108.781 294.165 51.538 231.115 51.538 155.74V2.75006Z" stroke="black" stroke-width="5.5"/>
<path d="M61.0033 285.936L68.3867 277.911L69.9229 279.324L68.1288 288.131L67.3148 287.382L75.8844 284.809L77.4092 286.212L70.0488 294.258L68.3062 292.655L73.2205 287.29L73.5415 287.586L66.7135 289.623L65.8766 288.853L67.2819 281.827L67.6717 282.185L62.7459 287.539L61.0033 285.936Z" fill="black"/>
<path d="M77.1024 300.04C76.4243 299.508 75.8818 298.904 75.4749 298.228C75.0762 297.559 74.8215 296.857 74.7109 296.123C74.6085 295.396 74.6504 294.67 74.8367 293.945C75.0312 293.226 75.3785 292.548 75.8787 291.911C76.3789 291.274 76.955 290.775 77.6069 290.415C78.2671 290.062 78.9666 289.852 79.7057 289.785C80.4447 289.718 81.1867 289.799 81.9317 290.027C82.6767 290.256 83.3842 290.633 84.0541 291.159C84.7321 291.691 85.2665 292.289 85.657 292.952C86.0558 293.621 86.3063 294.319 86.4088 295.047C86.5194 295.78 86.4815 296.51 86.2952 297.235C86.1153 297.952 85.7721 298.633 85.2655 299.279C84.7653 299.916 84.182 300.415 83.5154 300.777C82.8553 301.13 82.1557 301.34 81.4167 301.407C80.6922 301.472 79.9575 301.39 79.2125 301.162C78.4757 300.94 77.7723 300.566 77.1024 300.04ZM78.4175 298.34C78.8015 298.641 79.2041 298.851 79.6253 298.971C80.0547 299.097 80.4881 299.133 80.9255 299.08C81.363 299.028 81.7786 298.885 82.1722 298.653C82.574 298.427 82.9352 298.11 83.2558 297.701C83.5764 297.293 83.7987 296.867 83.9228 296.423C84.055 295.985 84.0947 295.547 84.042 295.11C83.9975 294.679 83.8631 294.27 83.6389 293.883C83.4147 293.495 83.1107 293.151 82.7267 292.85C82.3427 292.548 81.9361 292.335 81.5067 292.209C81.0855 292.09 80.6561 292.056 80.2187 292.109C79.7812 292.162 79.3616 292.301 78.9598 292.527C78.5662 292.759 78.209 293.08 77.8884 293.488C77.5742 293.889 77.3478 294.312 77.2092 294.757C77.0852 295.201 77.0454 295.639 77.09 296.07C77.1427 296.507 77.2811 296.92 77.5053 297.307C77.7295 297.694 78.0336 298.038 78.4175 298.34Z" fill="black"/>
<path d="M86.5267 306.664L91.5151 299.356L88.633 297.388L89.7923 295.69L97.641 301.047L96.4817 302.746L93.5996 300.778L88.6111 308.087L86.5267 306.664Z" fill="black"/>
<path d="M96.2194 312.884L100.77 305.296L97.7778 303.501L98.8354 301.737L106.985 306.625L105.927 308.388L102.935 306.593L98.3838 314.182L96.2194 312.884Z" fill="black"/>
<path d="M108.911 320.101C108.144 319.708 107.496 319.219 106.968 318.633C106.448 318.052 106.065 317.411 105.816 316.712C105.577 316.018 105.48 315.297 105.524 314.549C105.578 313.807 105.79 313.075 106.16 312.354C106.529 311.633 107 311.034 107.571 310.557C108.152 310.084 108.798 309.745 109.511 309.538C110.224 309.332 110.968 309.269 111.743 309.351C112.517 309.433 113.284 309.669 114.042 310.057C114.809 310.45 115.447 310.935 115.957 311.512C116.476 312.093 116.855 312.731 117.094 313.425C117.343 314.124 117.445 314.848 117.4 315.595C117.36 316.333 117.153 317.067 116.779 317.797C116.409 318.518 115.932 319.12 115.346 319.601C114.766 320.074 114.119 320.414 113.406 320.62C112.708 320.822 111.971 320.882 111.196 320.8C110.43 320.723 109.668 320.49 108.911 320.101ZM109.877 318.181C110.312 318.404 110.747 318.534 111.183 318.57C111.629 318.612 112.061 318.565 112.481 318.43C112.9 318.295 113.281 318.076 113.623 317.773C113.974 317.474 114.268 317.094 114.505 316.632C114.742 316.17 114.879 315.709 114.916 315.25C114.963 314.795 114.918 314.358 114.783 313.938C114.657 313.524 114.447 313.148 114.153 312.81C113.859 312.473 113.495 312.193 113.061 311.97C112.627 311.748 112.187 311.616 111.741 311.574C111.305 311.537 110.877 311.586 110.458 311.721C110.038 311.856 109.653 312.073 109.302 312.372C108.959 312.675 108.67 313.057 108.433 313.519C108.201 313.972 108.059 314.431 108.008 314.895C107.971 315.354 108.016 315.791 108.141 316.206C108.277 316.625 108.491 317.004 108.785 317.341C109.079 317.678 109.443 317.958 109.877 318.181Z" fill="black"/>
<path d="M120.209 319.182C119.829 319.014 119.558 318.74 119.396 318.362C119.248 317.978 119.264 317.582 119.445 317.174C119.626 316.766 119.904 316.497 120.279 316.368C120.668 316.233 121.053 316.25 121.433 316.419C121.822 316.591 122.093 316.864 122.245 317.238C122.402 317.603 122.389 317.99 122.209 318.398C122.028 318.806 121.746 319.085 121.362 319.233C120.983 319.371 120.598 319.354 120.209 319.182ZM117.944 324.296C117.564 324.127 117.293 323.854 117.132 323.476C116.983 323.092 117 322.696 117.181 322.288C117.361 321.879 117.64 321.611 118.015 321.482C118.404 321.347 118.788 321.364 119.168 321.532C119.557 321.705 119.828 321.978 119.98 322.352C120.137 322.717 120.125 323.103 119.944 323.512C119.763 323.92 119.481 324.198 119.097 324.346C118.718 324.485 118.333 324.468 117.944 324.296Z" fill="black"/>
<path d="M133.746 330.344L136.603 321.969L133.301 320.842L133.965 318.896L142.959 321.965L142.295 323.911L138.992 322.784L136.134 331.159L133.746 330.344Z" fill="black"/>
<path d="M147.669 334.738C146.836 334.514 146.1 334.171 145.461 333.709C144.832 333.25 144.322 332.705 143.932 332.073C143.553 331.444 143.306 330.76 143.193 330.02C143.09 329.282 143.144 328.522 143.354 327.74C143.564 326.958 143.898 326.273 144.357 325.687C144.825 325.103 145.386 324.635 146.04 324.284C146.693 323.932 147.407 323.715 148.182 323.633C148.957 323.55 149.756 323.62 150.578 323.841C151.411 324.064 152.137 324.404 152.756 324.861C153.386 325.32 153.89 325.864 154.27 326.493C154.659 327.124 154.911 327.81 155.024 328.55C155.14 329.28 155.091 330.042 154.879 330.834C154.669 331.616 154.328 332.305 153.857 332.899C153.388 333.482 152.827 333.95 152.173 334.302C151.533 334.646 150.825 334.859 150.05 334.941C149.285 335.026 148.491 334.958 147.669 334.738ZM148.211 332.657C148.683 332.784 149.136 332.819 149.57 332.764C150.014 332.711 150.427 332.575 150.809 332.355C151.191 332.134 151.517 331.84 151.788 331.472C152.069 331.107 152.276 330.673 152.411 330.172C152.546 329.67 152.583 329.191 152.523 328.734C152.473 328.28 152.338 327.861 152.118 327.48C151.907 327.101 151.623 326.777 151.265 326.509C150.907 326.241 150.492 326.043 150.021 325.917C149.549 325.79 149.092 325.753 148.647 325.806C148.213 325.862 147.805 325.999 147.423 326.22C147.042 326.44 146.71 326.732 146.429 327.098C146.159 327.466 145.956 327.901 145.821 328.402C145.689 328.894 145.647 329.372 145.694 329.836C145.754 330.293 145.889 330.711 146.1 331.09C146.32 331.472 146.609 331.797 146.967 332.065C147.325 332.333 147.74 332.531 148.211 332.657Z" fill="black"/>
<path d="M167.784 338.876C166.922 338.742 166.114 338.5 165.359 338.151C164.605 337.792 164.016 337.39 163.591 336.946L164.731 335.2C165.141 335.6 165.643 335.957 166.235 336.27C166.839 336.574 167.465 336.777 168.111 336.877C168.604 336.954 169.006 336.97 169.318 336.924C169.642 336.869 169.889 336.766 170.06 336.614C170.231 336.462 170.334 336.273 170.369 336.047C170.414 335.76 170.336 335.516 170.136 335.317C169.938 335.107 169.662 334.922 169.308 334.762C168.956 334.592 168.562 334.425 168.125 334.262C167.7 334.091 167.272 333.898 166.843 333.684C166.424 333.472 166.048 333.224 165.714 332.94C165.379 332.657 165.123 332.312 164.945 331.906C164.776 331.502 164.737 331.012 164.827 330.437C164.923 329.822 165.174 329.288 165.581 328.836C165.999 328.376 166.565 328.049 167.279 327.855C168.004 327.653 168.875 327.631 169.89 327.789C170.568 327.895 171.222 328.081 171.853 328.348C172.486 328.604 173.029 328.93 173.482 329.327L172.417 331.1C171.959 330.734 171.489 330.446 171.007 330.234C170.527 330.012 170.046 329.863 169.563 329.788C169.081 329.713 168.677 329.708 168.352 329.773C168.026 329.838 167.782 329.952 167.62 330.116C167.46 330.27 167.361 330.464 167.324 330.7C167.281 330.977 167.359 331.221 167.557 331.43C167.757 331.63 168.034 331.81 168.388 331.97C168.741 332.13 169.13 332.296 169.556 332.467C169.991 332.64 170.419 332.828 170.84 333.03C171.27 333.234 171.653 333.477 171.987 333.761C172.321 334.044 172.572 334.388 172.741 334.793C172.919 335.199 172.964 335.684 172.876 336.248C172.782 336.854 172.526 337.382 172.109 337.832C171.692 338.282 171.121 338.608 170.396 338.81C169.681 339.014 168.81 339.036 167.784 338.876Z" fill="black"/>
<path d="M179.352 333.555L184.579 334.037L184.399 335.992L179.171 335.509L179.352 333.555ZM179.126 338.04L185.036 338.585L184.85 340.601L176.442 339.826L177.444 328.967L185.65 329.724L185.464 331.741L179.755 331.214L179.126 338.04Z" fill="black"/>
<path d="M191.205 334.306L196.452 334.46L196.395 336.422L191.147 336.268L191.205 334.306ZM191.26 338.796L197.192 338.971L197.133 340.995L188.693 340.747L189.013 329.847L197.251 330.089L197.191 332.113L191.461 331.945L191.26 338.796Z" fill="black"/>
<path d="M203.158 338.335L202.915 335.428L207.937 329.749L210.739 329.65L206.216 334.875L204.867 336.419L203.158 338.335ZM200.988 340.905L200.604 330.007L203.111 329.919L203.495 340.817L200.988 340.905ZM208.446 340.642L204.402 336.03L205.989 334.182L211.388 340.539L208.446 340.642Z" fill="black"/>
<path d="M220.253 339.628L223.511 328.142L225.978 327.787L232.358 337.886L229.736 338.263L224.418 329.302L225.405 329.16L222.813 339.259L220.253 339.628ZM222.326 336.969L222.716 334.977L228.267 334.178L229.219 335.977L222.326 336.969Z" fill="black"/>
<path d="M235.317 337.222L233.008 326.565L235.048 326.123L242.999 332.434L242.009 332.648L240.347 324.975L242.783 324.447L245.092 335.105L243.067 335.544L235.101 329.236L236.091 329.021L237.753 336.695L235.317 337.222Z" fill="black"/>
<path d="M248.785 334.071L245.711 323.608L250.464 322.211C251.6 321.878 252.666 321.803 253.662 321.986C254.654 322.16 255.509 322.564 256.226 323.198C256.942 323.831 257.457 324.681 257.771 325.748C258.081 326.804 258.108 327.797 257.851 328.728C257.591 329.649 257.092 330.456 256.354 331.149C255.613 331.832 254.674 332.34 253.538 332.674L248.785 334.071ZM250.622 331.371L252.834 330.721C253.532 330.516 254.097 330.21 254.529 329.801C254.968 329.38 255.255 328.884 255.391 328.314C255.536 327.741 255.512 327.125 255.319 326.468C255.123 325.8 254.81 325.27 254.381 324.876C253.958 324.47 253.45 324.213 252.856 324.107C252.268 323.987 251.626 324.029 250.929 324.234L248.716 324.884L250.622 331.371Z" fill="black"/>
<path d="M271.941 326.147L268.565 317.968L265.339 319.299L264.555 317.398L273.339 313.773L274.123 315.673L270.898 317.005L274.274 325.184L271.941 326.147Z" fill="black"/>
<path d="M285.304 320.266C284.531 320.647 283.752 320.875 282.966 320.949C282.19 321.019 281.447 320.945 280.738 320.728C280.038 320.505 279.401 320.153 278.828 319.672C278.264 319.186 277.803 318.579 277.445 317.853C277.087 317.126 276.886 316.391 276.844 315.648C276.811 314.9 276.925 314.178 277.184 313.483C277.443 312.788 277.837 312.154 278.365 311.581C278.893 311.008 279.539 310.533 280.303 310.156C281.076 309.775 281.846 309.552 282.613 309.487C283.389 309.417 284.127 309.493 284.827 309.715C285.536 309.933 286.178 310.282 286.751 310.764C287.32 311.236 287.785 311.84 288.148 312.576C288.506 313.303 288.704 314.045 288.742 314.802C288.775 315.55 288.661 316.272 288.402 316.967C288.147 317.648 287.756 318.275 287.228 318.848C286.709 319.417 286.068 319.889 285.304 320.266ZM284.339 318.344C284.777 318.129 285.141 317.857 285.431 317.528C285.73 317.196 285.95 316.821 286.092 316.403C286.234 315.986 286.285 315.55 286.246 315.095C286.216 314.635 286.086 314.172 285.857 313.706C285.627 313.24 285.339 312.855 284.992 312.552C284.655 312.243 284.278 312.018 283.86 311.876C283.452 311.73 283.025 311.674 282.579 311.709C282.133 311.743 281.691 311.869 281.254 312.085C280.816 312.3 280.447 312.575 280.148 312.907C279.858 313.236 279.643 313.608 279.501 314.025C279.359 314.443 279.303 314.881 279.333 315.341C279.372 315.797 279.507 316.257 279.736 316.723C279.961 317.179 280.245 317.567 280.587 317.884C280.933 318.188 281.311 318.413 281.719 318.559C282.136 318.701 282.568 318.755 283.014 318.72C283.46 318.685 283.902 318.56 284.339 318.344Z" fill="black"/>
<path d="M298.786 305.555L303.205 302.749L304.29 304.459L299.871 307.265L298.786 305.555ZM302.158 310.518L300.027 311.871L294.183 302.665L301.14 298.248L302.226 299.957L297.399 303.022L302.158 310.518Z" fill="black"/>
<path d="M310.235 305.126L303.912 296.241L305.968 294.778L312.291 303.662L310.235 305.126Z" fill="black"/>
<path d="M317.108 300.095L310.291 291.583L311.921 290.278L321.851 292.385L321.06 293.018L316.152 286.89L318.098 285.331L324.915 293.843L323.297 295.138L313.355 293.041L314.146 292.408L319.054 298.537L317.108 300.095Z" fill="black"/>
<path d="M327.76 291.271L320.345 283.275L323.978 279.907C324.846 279.101 325.767 278.559 326.74 278.28C327.706 277.993 328.651 277.974 329.575 278.222C330.499 278.47 331.339 279.001 332.094 279.816C332.843 280.623 333.31 281.501 333.494 282.448C333.672 283.388 333.585 284.333 333.233 285.282C332.874 286.224 332.261 287.098 331.392 287.903L327.76 291.271ZM328.202 288.036L329.892 286.468C330.425 285.974 330.794 285.448 330.999 284.889C331.204 284.317 331.241 283.745 331.108 283.174C330.983 282.596 330.687 282.056 330.221 281.553C329.748 281.043 329.231 280.707 328.672 280.547C328.112 280.371 327.543 280.368 326.963 280.537C326.384 280.692 325.828 281.016 325.295 281.511L323.605 283.078L328.202 288.036Z" fill="black"/>
<path d="M349.646 224.926L392 264.359L349.646 324.726V224.926Z" fill="black"/>
<path d="M46.3538 224.926L4 264.359L46.3538 324.726V224.926Z" fill="black"/>
<path fill-rule="evenodd" clip-rule="evenodd" d="M198.243 321.318C129.972 321.318 70.9471 283.404 42.8697 228.361L46.6931 224.82C73.647 278.865 131.278 316.318 198.243 316.318C264.952 316.318 322.398 279.151 349.483 225.44L353.294 228.991C325.089 283.693 266.254 321.318 198.243 321.318Z" fill="black"/>
<path fill-rule="evenodd" clip-rule="evenodd" d="M196.48 356.604C118.749 356.604 51.546 313.437 19.5784 250.767L23.4011 247.227C54.246 308.898 120.056 351.604 196.48 351.604C272.611 351.604 338.21 309.224 369.203 247.934L373.014 251.484C340.9 313.766 273.914 356.604 196.48 356.604Z" fill="black"/>
</g>
<path d="M119.865 228.982C119.865 227.273 121.25 225.887 122.959 225.887H270.607C272.316 225.887 273.701 227.273 273.701 228.982C273.701 230.691 272.316 232.076 270.607 232.076H122.959C121.25 232.076 119.865 230.691 119.865 228.982Z" fill="black"/>
<path d="M140.641 291.312C138.932 291.312 137.547 289.927 137.547 288.218V228.982C137.547 227.273 138.932 225.887 140.641 225.887C142.35 225.887 143.736 227.273 143.736 228.982V288.218C143.736 289.927 142.35 291.312 140.641 291.312Z" fill="black"/>
<path d="M157.44 298.385C155.731 298.385 154.345 297 154.345 295.291V232.518C154.345 230.809 155.731 229.424 157.44 229.424C159.149 229.424 160.534 230.809 160.534 232.518V295.291C160.534 297 159.149 298.385 157.44 298.385Z" fill="black"/>
<path d="M236.126 298.385C234.417 298.385 233.032 297 233.032 295.291V232.518C233.032 230.809 234.417 229.424 236.126 229.424C237.835 229.424 239.221 230.809 239.221 232.518V295.291C239.221 297 237.835 298.385 236.126 298.385Z" fill="black"/>
<path d="M252.925 293.08C251.216 293.08 249.83 291.695 249.83 289.986V230.75C249.83 229.041 251.216 227.655 252.925 227.655C254.634 227.655 256.019 229.041 256.019 230.75V289.986C256.019 291.695 254.634 293.08 252.925 293.08Z" fill="black"/>
<path d="M237.17 183.046H234.424C234.23 182.521 234.035 181.995 233.811 181.469C233.811 181.469 233.811 181.42 233.811 181.391C233.733 181.196 233.645 181.002 233.558 180.797C233.541 180.743 233.518 180.691 233.49 180.642C233.139 179.833 232.759 179.016 232.35 178.178H239.624C239.882 178.178 240.129 178.076 240.312 177.893C240.495 177.71 240.597 177.463 240.597 177.205C240.597 175.139 239.777 173.157 238.316 171.697C236.855 170.236 234.874 169.415 232.808 169.415H210.414C208.606 169.415 206.873 170.133 205.595 171.412C204.317 172.69 203.598 174.423 203.598 176.231V177.205C203.598 177.463 203.701 177.71 203.884 177.893C204.066 178.076 204.314 178.178 204.572 178.178H211.797C211.397 179.016 211.027 179.843 210.677 180.661L210.618 180.788C210.297 181.547 209.995 182.306 209.713 183.046H207.026C204.568 183.049 202.212 184.026 200.474 185.764C198.737 187.502 197.759 189.858 197.757 192.316V199.131C197.769 201.582 198.751 203.928 200.488 205.657C202.225 207.387 204.575 208.359 207.026 208.361H209.713C209.995 209.101 210.297 209.861 210.618 210.62L210.677 210.747C211.027 211.565 211.397 212.392 211.797 213.23H208.467C208.306 213.23 208.149 213.271 208.008 213.347C207.867 213.424 207.747 213.534 207.659 213.668L203.764 219.51C203.739 219.542 203.719 219.578 203.706 219.617C203.706 219.617 203.706 219.617 203.706 219.695C203.654 219.806 203.618 219.924 203.598 220.045V226.861C203.598 227.119 203.701 227.367 203.884 227.549C204.066 227.732 204.314 227.834 204.572 227.834H239.624C239.882 227.834 240.129 227.732 240.312 227.549C240.495 227.367 240.597 227.119 240.597 226.861V220.045C240.589 219.932 240.566 219.821 240.529 219.714C240.529 219.714 240.529 219.714 240.529 219.636C240.515 219.598 240.496 219.561 240.471 219.529L236.576 213.687C236.487 213.544 236.362 213.427 236.213 213.346C236.065 213.266 235.898 213.226 235.729 213.23H232.292C232.691 212.392 233.071 211.574 233.421 210.766C233.45 210.717 233.473 210.665 233.49 210.61C233.704 210.114 233.918 209.637 234.113 209.131C234.15 209.056 234.18 208.978 234.2 208.897C234.278 208.712 234.337 208.537 234.405 208.361H237.17C239.628 208.359 241.984 207.381 243.721 205.644C245.459 203.906 246.437 201.55 246.439 199.092V192.277C246.426 189.826 245.444 187.48 243.708 185.75C241.971 184.021 239.621 183.049 237.17 183.046V183.046ZM233.441 205.255C232.705 203.158 231.541 201.237 230.022 199.615C228.503 197.992 226.663 196.703 224.62 195.83C228.746 193.456 231.788 189.57 233.1 184.994C235.565 191.503 235.685 198.667 233.441 205.255ZM236.216 188.888H237.491C238.635 188.956 239.705 189.473 240.469 190.327C241.233 191.18 241.629 192.301 241.571 193.445V197.963C241.629 199.107 241.233 200.228 240.469 201.081C239.705 201.935 238.635 202.452 237.491 202.519H236.196C237.22 198.034 237.227 193.377 236.216 188.888ZM210.414 171.363H232.808C234.189 171.362 235.526 171.85 236.581 172.741C237.637 173.633 238.342 174.869 238.572 176.231H205.546C205.546 174.94 206.059 173.701 206.972 172.788C207.885 171.876 209.123 171.363 210.414 171.363V171.363ZM222.098 178.178H230.208C230.539 178.84 230.841 179.483 231.182 180.125H228.913C228.655 180.125 228.408 180.228 228.225 180.411C228.042 180.593 227.94 180.841 227.94 181.099C227.94 181.357 228.042 181.605 228.225 181.788C228.408 181.97 228.655 182.073 228.913 182.073H231.834C231.484 184.02 229.624 191.809 222.098 194.867C214.737 191.897 212.799 184.234 212.361 182.073H225.992C226.251 182.073 226.498 181.97 226.681 181.788C226.864 181.605 226.966 181.357 226.966 181.099C226.966 180.841 226.864 180.593 226.681 180.411C226.498 180.228 226.251 180.125 225.992 180.125H213.033C213.325 179.483 213.627 178.84 213.948 178.178H222.098ZM207.96 202.519H206.403C204.319 202.519 202.625 200.475 202.625 197.963V193.445C202.625 190.933 204.319 188.888 206.403 188.888H207.96C206.958 193.377 206.958 198.031 207.96 202.519V202.519ZM211.096 184.994C212.415 189.577 215.453 193.473 219.576 195.869C217.527 196.749 215.684 198.044 214.162 199.673C212.64 201.302 211.473 203.23 210.735 205.333C208.576 198.704 208.703 191.542 211.096 184.994V184.994ZM207.026 206.414C205.085 206.411 203.224 205.639 201.851 204.267C200.479 202.894 199.706 201.033 199.704 199.092V192.277C199.719 190.343 200.497 188.494 201.868 187.13C203.239 185.767 205.092 184.999 207.026 184.994H209.031C208.817 185.646 208.613 186.298 208.438 186.941H206.403C203.248 186.941 200.678 189.862 200.678 193.445V197.963C200.678 201.546 203.248 204.467 206.403 204.467H208.467C208.642 205.109 208.846 205.762 209.061 206.414H207.026ZM238.65 225.887H205.546V221.019H238.65V225.887ZM237.803 219.072H206.393L208.992 215.177H213.335C215.097 215.177 216.548 215.177 217.814 215.177H220.559H220.998H224.347C225.535 215.177 226.859 215.177 228.466 215.177H235.193L237.803 219.072ZM213.948 213.23C213.627 212.568 213.325 211.925 213.033 211.282H214.309C214.567 211.282 214.815 211.18 214.997 210.997C215.18 210.815 215.282 210.567 215.282 210.309C215.282 210.05 215.18 209.803 214.997 209.62C214.815 209.438 214.567 209.335 214.309 209.335H212.196C212.098 209.111 211.991 208.877 211.904 208.653C212.279 205.965 213.418 203.44 215.185 201.38C216.952 199.319 219.274 197.809 221.874 197.028L222.098 196.94L222.322 197.028C230.909 199.949 232.126 207.174 232.273 208.527C232.165 208.79 232.039 209.062 231.922 209.335H217.23C216.971 209.335 216.724 209.438 216.541 209.62C216.359 209.803 216.256 210.05 216.256 210.309C216.256 210.567 216.359 210.815 216.541 210.997C216.724 211.18 216.971 211.282 217.23 211.282H231.065C230.763 211.925 230.462 212.568 230.092 213.23H213.948V213.23ZM244.492 199.092C244.492 201.034 243.72 202.896 242.347 204.27C240.974 205.643 239.112 206.414 237.17 206.414H235.106C235.32 205.762 235.524 205.109 235.709 204.467H237.491C239.151 204.398 240.717 203.676 241.846 202.457C242.975 201.239 243.576 199.623 243.518 197.963V193.445C243.576 191.785 242.975 190.169 241.846 188.95C240.717 187.732 239.151 187.009 237.491 186.941H235.729C235.554 186.298 235.349 185.646 235.135 184.994H237.18C239.119 184.999 240.977 185.772 242.348 187.145C243.718 188.517 244.489 190.376 244.492 192.316V199.092ZM233.782 223.94C233.782 223.682 233.884 223.434 234.067 223.251C234.249 223.069 234.497 222.966 234.755 222.966H236.703C236.961 222.966 237.208 223.069 237.391 223.251C237.574 223.434 237.676 223.682 237.676 223.94C237.676 224.198 237.574 224.446 237.391 224.628C237.208 224.811 236.961 224.913 236.703 224.913H234.755C234.497 224.913 234.249 224.811 234.067 224.628C233.884 224.446 233.782 224.198 233.782 223.94ZM207.493 223.94C207.493 223.682 207.596 223.434 207.778 223.251C207.961 223.069 208.208 222.966 208.467 222.966H231.834C232.093 222.966 232.34 223.069 232.523 223.251C232.705 223.434 232.808 223.682 232.808 223.94C232.808 224.198 232.705 224.446 232.523 224.628C232.34 224.811 232.093 224.913 231.834 224.913H208.467C208.208 224.913 207.961 224.811 207.778 224.628C207.596 224.446 207.493 224.198 207.493 223.94Z" fill="black"/>
<path d="M144.985 205.431C144.985 203.742 146.313 202.373 147.952 202.373H184.441C184.961 202.373 185.229 203.266 184.857 203.64C183.927 204.575 182.949 206.03 182.949 208.01C182.949 210.053 183.992 211.568 184.947 212.527C185.315 212.897 185.052 213.752 184.538 213.752H147.952C146.313 213.752 144.985 212.383 144.985 210.694V205.431Z" fill="black"/>
<path d="M141.464 193.978C141.464 192.289 142.793 190.92 144.431 190.92H179.797C179.797 190.92 177.058 192.742 176.773 196.185C176.488 199.629 179.797 201.427 179.797 201.427H144.431C142.793 201.427 141.464 200.058 141.464 198.369V193.978Z" fill="white"/>
<path fill-rule="evenodd" clip-rule="evenodd" d="M180.335 191.775C180.335 191.775 180.334 191.776 180.334 191.776L180.324 191.783C180.312 191.792 180.29 191.807 180.26 191.829C180.201 191.874 180.11 191.945 179.998 192.041C179.773 192.235 179.465 192.528 179.15 192.916C178.517 193.695 177.879 194.819 177.758 196.272C177.648 197.61 178.225 198.65 178.903 199.404C179.241 199.78 179.59 200.067 179.854 200.259C179.986 200.355 180.094 200.425 180.166 200.47C180.202 200.493 180.228 200.508 180.245 200.518C180.253 200.522 180.258 200.525 180.26 200.526L180.259 200.526L180.259 200.526C180.26 200.526 180.261 200.527 180.261 200.527C180.661 200.746 180.866 201.218 180.757 201.672C180.648 202.127 180.252 202.446 179.797 202.446H144.431C142.246 202.446 140.476 200.621 140.476 198.369V193.978C140.476 191.726 142.246 189.901 144.431 189.901H179.797C180.235 189.901 180.622 190.198 180.746 190.632C180.869 191.064 180.703 191.529 180.336 191.774C180.336 191.775 180.336 191.775 180.335 191.775ZM178.475 200.408C179.164 201.083 179.797 201.427 179.797 201.427H144.431C142.793 201.427 141.464 200.058 141.464 198.369V193.978C141.464 192.289 142.793 190.92 144.431 190.92H179.797C179.797 190.92 179.278 191.265 178.668 191.939C177.877 192.814 176.934 194.241 176.773 196.185C176.613 198.123 177.59 199.539 178.475 200.408Z" fill="black"/>
<path d="M138.927 217.755C138.927 216.066 140.255 214.697 141.893 214.697H177.259C177.259 214.697 174.775 216.298 174.363 219.884C173.95 223.47 177.259 225.204 177.259 225.204H141.893C140.255 225.204 138.927 223.835 138.927 222.147V217.755Z" fill="white"/>
<path fill-rule="evenodd" clip-rule="evenodd" d="M177.786 215.56C177.786 215.56 177.786 215.56 177.786 215.56C177.785 215.56 177.785 215.561 177.784 215.561C177.784 215.561 177.784 215.561 177.784 215.561M176.155 215.717C176.75 215.025 177.259 214.697 177.259 214.697H141.893C140.255 214.697 138.927 216.066 138.927 217.755V222.147C138.927 223.835 140.255 225.204 141.893 225.204H177.259C177.259 225.204 176.617 224.868 175.934 224.185C175.066 223.317 174.132 221.891 174.363 219.884C174.589 217.921 175.435 216.553 176.155 215.717ZM177.708 224.296C177.709 224.297 177.71 224.297 177.711 224.298C177.712 224.298 177.711 224.298 177.711 224.298C178.116 224.512 178.327 224.985 178.221 225.442C178.114 225.9 177.717 226.224 177.259 226.224H141.893C139.709 226.224 137.938 224.398 137.938 222.147V217.755C137.938 215.503 139.709 213.678 141.893 213.678H177.259C177.7 213.678 178.088 213.979 178.21 214.416C178.331 214.851 178.159 215.316 177.788 215.558C177.788 215.559 177.787 215.559 177.786 215.56M177.71 224.297C177.708 224.296 177.704 224.294 177.696 224.289C177.681 224.28 177.655 224.266 177.62 224.244C177.549 224.202 177.443 224.134 177.315 224.041C177.056 223.855 176.715 223.575 176.389 223.204C175.74 222.467 175.182 221.418 175.345 220.004C175.525 218.441 176.152 217.321 176.731 216.591C177.022 216.224 177.299 215.957 177.499 215.786C177.598 215.7 177.677 215.639 177.728 215.602C177.753 215.583 177.771 215.57 177.781 215.564L177.786 215.56L177.785 215.561L177.784 215.561M177.71 224.297H177.71L177.709 224.296" fill="black"/>
<path d="M147.948 205.452H170.999M147.948 208.062H160.531" stroke="white" stroke-width="2" stroke-linecap="round" stroke-linejoin="round"/>
<path d="M168.62 190.57H172.717V196.819C172.717 197.273 172.185 197.5 171.873 197.179L171.018 196.298C170.825 196.099 170.512 196.099 170.319 196.298L169.464 197.179C169.152 197.5 168.62 197.273 168.62 196.819V190.57Z" fill="black"/>
<path d="M141.18 217.341H164.232M141.18 219.951H153.763M144.141 193.645H163.491" stroke="black" stroke-width="2" stroke-linecap="round" stroke-linejoin="round"/>
<defs>
<filter id="filter0_d_17_30" x="58.8763" y="125.037" width="91.4307" height="29.6289" filterUnits="userSpaceOnUse" color-interpolation-filters="sRGB">
<feFlood flood-opacity="0" result="BackgroundImageFix"/>
<feColorMatrix in="SourceAlpha" type="matrix" values="0 0 0 0 0 0 0 0 0 0 0 0 0 0 0 0 0 0 127 0" result="hardAlpha"/>
<feOffset dy="4"/>
<feGaussianBlur stdDeviation="2"/>
<feComposite in2="hardAlpha" operator="out"/>
<feColorMatrix type="matrix" values="0 0 0 0 0 0 0 0 0 0 0 0 0 0 0 0 0 0 0.25 0"/>
<feBlend mode="normal" in2="BackgroundImageFix" result="effect1_dropShadow_17_30"/>
<feBlend mode="normal" in="SourceGraphic" in2="effect1_dropShadow_17_30" result="shape"/>
</filter>
<filter id="filter1_d_17_30" x="0" y="6.10352e-05" width="396" height="364.604" filterUnits="userSpaceOnUse" color-interpolation-filters="sRGB">
<feFlood flood-opacity="0" result="BackgroundImageFix"/>
<feColorMatrix in="SourceAlpha" type="matrix" values="0 0 0 0 0 0 0 0 0 0 0 0 0 0 0 0 0 0 127 0" result="hardAlpha"/>
<feOffset dy="4"/>
<feGaussianBlur stdDeviation="2"/>
<feComposite in2="hardAlpha" operator="out"/>
<feColorMatrix type="matrix" values="0 0 0 0 0 0 0 0 0 0 0 0 0 0 0 0 0 0 0.25 0"/>
<feBlend mode="normal" in2="BackgroundImageFix" result="effect1_dropShadow_17_30"/>
<feBlend mode="normal" in="SourceGraphic" in2="effect1_dropShadow_17_30" result="shape"/>
</filter>
</defs>
</svg>
